<?xml version="1.0" encoding="utf-8"?>
<!-- Generator: Adobe Illustrator 22.0.1, SVG Export Plug-In . SVG Version: 6.00 Build 0)  -->
<svg version="1.1" xmlns="http://www.w3.org/2000/svg" xmlns:xlink="http://www.w3.org/1999/xlink" x="0px" y="0px"
	 viewBox="0 0 512 512" style="enable-background:new 0 0 512 512;" xml:space="preserve">
<style type="text/css">
	.st0{fill:#4B71B4;}
	.st1{fill:#80B4E8;}
	.st2{fill:#594144;}
	.st3{fill:#B8E876;}
	.st4{fill:#E09122;}
	.st5{fill:#FBF355;}
	.st6{fill:#EEC82F;}
	.st7{fill:#CEA628;}
	.st8{fill:#9BC9EF;}
	.st9{fill:#9DD055;}
	.st10{fill:#5686C5;}
	.st11{fill:#3B5880;}
	.st12{fill:#C2E5FB;}
	.st13{fill:#446697;}
	.st14{fill:#D1F1A0;}
	.st15{fill:#ABD170;}
	.st16{fill:#9DBD6A;}
	.st17{fill:#649D53;}
	.st18{fill:#72B35D;}
	.st19{fill:#ABD68D;}
	.st20{fill:#7FB358;}
	.st21{fill:#920C50;}
	.st22{fill:#C60053;}
	.st23{fill:#530730;}
	.st24{fill:#600332;}
	.st25{fill:#D5AC2A;}
	.st26{fill:#EFD776;}
	.st27{fill:#A7C76D;}
	.st28{fill:#A43749;}
	.st29{fill:#DC4355;}
	.st30{fill:#E18696;}
	.st31{fill:#77A255;}
	.st32{fill:#628547;}
	.st33{fill:#6E994D;}
	.st34{fill:none;stroke:#54743C;stroke-width:8;stroke-linecap:round;stroke-miterlimit:10;}
	.st35{fill:#9BCF75;}
	.st36{fill:#CA8F80;}
	.st37{fill:#E6B8AB;}
	.st38{fill:#E2A18B;}
	.st39{fill:#8E3F2B;}
	.st40{fill:#D89988;}
	.st41{fill:#CFCFCF;}
	.st42{fill:#A64B2D;}
	.st43{fill:#FFFFFF;}
	.st44{fill:#CA801F;}
	.st45{fill:#719C50;}
	.st46{fill:#85B7E5;}
	.st47{fill:#4F7BA9;}
	.st48{fill:#674C50;}
	.st49{fill:#BAD7ED;}
	.st50{fill:#63494D;}
	.st51{fill:#503D3F;}
	.st52{fill:#638547;}
	.st53{fill:#56713E;}
	.st54{fill:#BB5135;}
	.st55{fill:#93C4EC;}
	.st56{fill:#CA8121;}
	.st57{fill:#FDFCFC;}
	.st58{fill:#A83A4F;}
	.st59{fill:#BD5E44;}
	.st60{fill:#688C4A;}
	.st61{fill:#7DA55A;}
	.st62{fill:#90BA51;}
	.st63{fill:none;}
	.st64{fill:#ABC287;}
	.st65{fill:#BDD993;}
	.st66{fill:none;stroke:#534046;stroke-width:15;stroke-linecap:round;stroke-linejoin:round;stroke-miterlimit:10;}
	.st67{fill:#413133;}
	.st68{fill:#34292B;}
	.st69{fill:#644B50;}
	.st70{fill:#CDACB7;}
	.st71{fill:#A83A4D;}
	.st72{fill:#413335;}
	.st73{fill:#DC6579;}
	.st74{fill:#4C393C;}
	.st75{fill:#527FAE;}
	.st76{fill:#92C2EA;}
	.st77{fill:#5B8C4A;}
	.st78{fill:#729C51;}
	.st79{fill:#AADB5E;}
	.st80{fill:#D66C53;}
	.st81{fill:#A65340;}
	.st82{fill:#B8594A;}
	.st83{fill:#79A754;}
	.st84{fill:#4E3B3E;}
	.st85{fill:#5E4649;}
	.st86{fill:#604A50;}
	.st87{fill:#685258;}
	.st88{fill:#765E66;}
	.st89{fill:#FCF69A;}
	.st90{fill:#D3CC84;}
	.st91{fill:#E6A572;}
	.st92{fill:#74A151;}
	.st93{fill:#6F994F;}
	.st94{fill:#CC6D7D;}
	.st95{fill:#AD6576;}
	.st96{fill:#95422D;}
	.st97{fill:#BE6850;}
	.st98{fill:#3B2F32;}
	.st99{fill:none;stroke:#46383B;stroke-width:15;stroke-linecap:round;stroke-miterlimit:10;}
	.st100{fill:none;stroke:#3B2F32;stroke-width:15;stroke-linecap:round;stroke-miterlimit:10;}
	.st101{fill:#D6CF77;}
	.st102{fill:#F5EF82;}
	.st103{fill:#4A383B;}
	.st104{fill:#CACACA;}
	.st105{fill:#48373A;}
	.st106{fill:#7AA8D2;}
	.st107{fill:#6E9150;}
	.st108{fill:#587441;}
	.st109{fill:#D76E51;}
	.st110{fill:#CCC475;}
	.st111{fill:#DDD57E;}
	.st112{fill:#F8F19C;}
	.st113{fill:#FBF58A;}
	.st114{fill:#C67F20;}
	.st115{fill:#AB6B1C;}
	.st116{fill:#C98020;}
	.st117{fill:#D99A41;}
	.st118{fill:#DBA35B;}
	.st119{fill:#9B5F1B;}
	.st120{fill:#97CF6D;}
	.st121{fill:#5380B1;}
	.st122{fill:#96D16A;}
	.st123{fill:#92BD50;}
	.st124{fill:#7EB058;}
	.st125{fill:#709A50;}
	.st126{fill:#5A8A4A;}
	.st127{fill:#D9D9D9;}
	.st128{fill:#75A3CD;}
	.st129{fill:#6E974F;}
	.st130{fill:#CA6D7D;}
	.st131{fill:#AB6576;}
	.st132{fill:#93422D;}
	.st133{fill:#A44B2D;}
	.st134{fill:#BC6850;}
	.st135{fill:#DFB52B;}
	.st136{fill:#4C3A3C;}
	.st137{fill:#473538;}
	.st138{fill:#382B2E;}
	.st139{fill:none;stroke:#FFFFFF;stroke-width:8;stroke-linecap:round;stroke-miterlimit:10;}
	.st140{fill:#90C0E8;}
	.st141{fill:none;stroke:#E09122;stroke-width:12;stroke-linecap:round;stroke-miterlimit:10;}
	.st142{fill:#DCAE2B;}
	.st143{fill:#F0D05A;}
	.st144{fill:#729E51;}
	.st145{fill:#E4BA36;}
	.st146{fill:#F8F283;}
	.st147{fill:#E4B6A9;}
	.st148{fill:#D78E30;}
	.st149{fill:#598A49;}
	.st150{fill:#B65339;}
	.st151{fill:#BA751F;}
	.st152{fill:#466A9F;}
	.st153{fill:#8BB34D;}
	.st154{fill:#9BCE54;}
	.st155{fill:#7F9F49;}
	.st156{fill:#D37F6D;}
	.st157{fill:#BB5E44;}
	.st158{fill:#93BB55;}
	.st159{fill:#B3E665;}
	.st160{fill:none;stroke:#4C393C;stroke-width:8;stroke-miterlimit:10;}
	.st161{fill:#97432D;}
	.st162{fill:#DAB12A;}
	.st163{fill:#5E914C;}
	.st164{fill:#5381B3;}
	.st165{fill:#6A8F4C;}
	.st166{fill:#628047;}
	.st167{fill:#E29D37;}
	.st168{fill:#6E555B;}
	.st169{fill:#91CA67;}
	.st170{fill:#476BA1;}
	.st171{fill:#6699D9;}
	.st172{fill:#503C3E;}
	.st173{fill:#413235;}
	.st174{fill:#CC916A;}
	.st175{fill:#BA8363;}
	.st176{fill:#D09571;}
	.st177{fill:#C98F68;}
	.st178{fill:#AA3B4D;}
	.st179{fill:#DA6075;}
	.st180{fill:#92452D;}
	.st181{fill:#A24B2D;}
	.st182{fill:#B76252;}
	.st183{fill:#87BD60;}
	.st184{fill:#78A7D2;}
	.st185{fill:#F9F38F;}
	.st186{fill:#E0D650;}
	.st187{fill:#AFE086;}
	.st188{fill:#9FD476;}
	.st189{fill:#9DD176;}
	.st190{fill:#8FC468;}
	.st191{fill:#7EAE58;}
	.st192{fill:#6F9850;}
	.st193{fill:#59884A;}
	.st194{fill:#638347;}
	.st195{fill:#B95135;}
	.st196{fill:#E5AB62;}
	.st197{fill:#733228;}
	.st198{fill:#803728;}
	.st199{fill:#6D974D;}
	.st200{fill:#99CD75;}
	.st201{fill:#93412C;}
	.st202{fill:#93C2EA;}
	.st203{fill:#CD926B;}
	.st204{fill:#E6AF8A;}
	.st205{fill:#E5DB4E;}
	.st206{fill:#FBF375;}
	.st207{fill:#779E54;}
	.st208{fill:#D3966D;}
	.st209{fill:#DA4355;}
	.st210{fill:#A83B4D;}
	.st211{fill:none;stroke:#594144;stroke-width:8;stroke-linecap:round;stroke-miterlimit:10;}
	.st212{fill:#E5A855;}
	.st213{fill:#EAC291;}
	.st214{fill:#96C252;}
	.st215{fill:#695055;}
	.st216{fill:#DC9C42;}
	.st217{fill:#8E5C1B;}
	.st218{fill:#F4EB6A;}
	.st219{fill:#CBC049;}
	.st220{fill:none;stroke:#B8E876;stroke-width:15;stroke-linecap:round;stroke-miterlimit:10;}
	.st221{fill:#A36A1C;}
	.st222{fill:#ECC94A;}
	.st223{fill:#91BEDA;}
	.st224{fill:#3D2F32;}
	.st225{fill:#A6394C;}
	.st226{fill:#33292B;}
	.st227{fill:#4F3D42;}
	.st228{fill:#638147;}
	.st229{fill:#CD8321;}
	.st230{fill:#D3CA4A;}
	.st231{fill:#E2A550;}
	.st232{fill:#B75135;}
	.st233{fill:#D4CD77;}
	.st234{fill:#F3EC80;}
	.st235{fill:#46383B;}
	.st236{fill:#82AA61;}
	.st237{fill:#8EBF69;}
	.st238{fill:#3C2E31;}
	.st239{fill:#C49F27;}
	.st240{fill:#D2BF7C;}
	.st241{fill:#F6E18D;}
	.st242{fill:#D6D6D6;}
	.st243{fill:#B5D7F2;}
	.st244{fill:#F1D467;}
	.st245{fill:#739FBD;}
	.st246{fill:#D0946C;}
	.st247{fill:#BE8767;}
	.st248{fill:#D0A829;}
	.st249{fill:#F6DF86;}
	.st250{fill:#EABA8D;}
	.st251{fill:#F0D1B8;}
	.st252{fill:#A5D0F1;}
	.st253{fill:#E3A13F;}
	.st254{fill:#F0FAFF;}
	.st255{fill:#B4D3E3;}
	.st256{fill:#80A5C3;}
	.st257{fill:#87AFD5;}
	.st258{fill:#B1D1E7;}
	.st259{fill:#AED66F;}
	.st260{fill:#91AA61;}
	.st261{fill:#A8384B;}
	.st262{fill:#CD8120;}
	.st263{fill:#E6AD56;}
	.st264{fill:none;stroke:#E6AD56;stroke-width:8;stroke-linecap:round;stroke-miterlimit:10;}
	.st265{fill:#9EBD68;}
	.st266{fill:#AAD16E;}
	.st267{fill:#86656B;}
	.st268{fill:#6D954D;}
	.st269{fill:#98CB75;}
	.st270{fill:#75A251;}
	.st271{fill:#91BD4F;}
	.st272{fill:none;stroke:#B8E078;stroke-width:8;stroke-linecap:round;stroke-miterlimit:10;}
	.st273{fill:none;stroke:#B8E078;stroke-width:8;stroke-linecap:round;stroke-linejoin:round;stroke-miterlimit:10;}
	.st274{fill:#8FBA4E;}
	.st275{fill:#B3E860;}
	.st276{fill:#E7A748;}
	.st277{fill:none;stroke:#B6E676;stroke-width:15;stroke-linecap:round;stroke-miterlimit:10;}
	.st278{fill:#639B53;}
	.st279{fill:#476B9F;}
	.st280{fill:#82B1DE;}
	.st281{fill:#A6533F;}
	.st282{fill:#C28A69;}
	.st283{fill:#64494E;}
	.st284{fill:#77565C;}
	.st285{fill:#4F3C40;}
	.st286{fill:#ECCCB1;}
	.st287{fill:#BF6F5C;}
	.st288{fill:none;stroke:#D4F1A7;stroke-width:10;stroke-linecap:round;stroke-miterlimit:10;}
	.st289{fill:none;stroke:#B8E876;stroke-width:10;stroke-linecap:round;stroke-miterlimit:10;}
	.st290{fill:#47688F;}
	.st291{fill:#3F5B78;}
	.st292{fill:#354E6C;}
	.st293{fill:#DAB12B;}
	.st294{fill:#C8A028;}
	.st295{fill:#F0D15C;}
	.st296{fill:#F8F28B;}
	.st297{fill:#F7F18D;}
	.st298{fill:#DED450;}
	.st299{fill:#F9F155;}
	.st300{fill:#A2CFF4;}
	.st301{fill:none;stroke:#594144;stroke-width:10;stroke-linecap:round;stroke-miterlimit:10;}
	.st302{fill:#F5F0AB;}
	.st303{fill:#496DA1;}
	.st304{fill:#5A85C7;}
	.st305{fill:#D7D7D7;}
	.st306{fill:#ADD3E6;}
	.st307{fill:#98B8C3;}
	.st308{fill:#CDCECF;}
	.st309{fill:#BF4F69;}
	.st310{fill:#A83448;}
	.st311{fill:#A4DAF7;}
	.st312{fill:#81A861;}
	.st313{fill:#82A549;}
	.st314{fill:#B6E676;}
	.st315{fill:#8CBD69;}
	.st316{fill:#ECC62F;}
	.st317{fill:#F4EA80;}
	.st318{fill:#D6AD2B;}
	.st319{fill:#6F9151;}
	.st320{fill:#46699C;}
	.st321{fill:#4A373A;}
	.st322{fill:#89B04C;}
	.st323{fill:#99CC53;}
	.st324{fill:#B1E465;}
	.st325{fill:#E19E3B;}
	.st326{fill:#C05970;}
	.st327{fill:#D95F74;}
	.st328{fill:#74A8DE;}
	.st329{fill:#C47C1E;}
	.st330{fill:#719A51;}
	.st331{fill:#A8D95E;}
	.st332{fill:#D46C53;}
	.st333{fill:#A45340;}
	.st334{fill:#B6594A;}
	.st335{fill:#79A554;}
	.st336{fill:#B6DAF7;}
	.st337{fill:#739F51;}
	.st338{fill:#DDB32B;}
	.st339{fill:#DE8F22;}
	.st340{fill:none;stroke:#46383B;stroke-width:8;stroke-linecap:round;stroke-miterlimit:10;}
	.st341{fill:none;stroke:#3B2F32;stroke-width:8;stroke-linecap:round;stroke-miterlimit:10;}
	.st342{fill:#C8C8C8;}
	.st343{fill:#7F9D49;}
	.st344{fill:#BA5E44;}
	.st345{fill:#92B955;}
	.st346{fill:#D17F6D;}
	.st347{fill:#5D8F4C;}
	.st348{fill:#B75334;}
	.st349{fill:#CA6D57;}
	.st350{fill:#A4574D;}
	.st351{fill:#7FB1E6;}
	.st352{fill:#77A3CD;}
	.st353{fill:#90BA4F;}
	.st354{fill:#5C8F4B;}
	.st355{fill:#ACDE5D;}
	.st356{fill:#6FAC5A;}
	.st357{fill:none;stroke:#9DD055;stroke-width:10;stroke-linecap:round;stroke-miterlimit:10;}
	.st358{fill:#AD5643;}
	.st359{fill:#B96052;}
	.st360{fill:#CB8D84;}
	.st361{fill:#CC6C56;}
	.st362{fill:#DE9A8E;}
	.st363{fill:#D37B6A;}
	.st364{fill:#A87758;}
	.st365{fill:#372A2C;}
	.st366{fill:#B8815C;}
	.st367{fill:#433335;}
	.st368{fill:#2C2325;}
	.st369{fill:#95402B;}
	.st370{fill:#A85441;}
	.st371{fill:#D2C74B;}
	.st372{fill:#B25945;}
	.st373{fill:none;stroke:#594144;stroke-width:15;stroke-linecap:round;stroke-miterlimit:10;}
	.st374{fill:none;stroke:#594144;stroke-width:12;stroke-linecap:round;stroke-miterlimit:10;}
	.st375{fill:#8F473B;}
	.st376{fill:#453538;}
	.st377{fill:#517DAB;}
	.st378{fill:#75A050;}
	.st379{fill:#A5384D;}
	.st380{fill:#CC6075;}
	.st381{fill:#F26B7F;}
	.st382{fill:#C67189;}
	.st383{fill:#B26980;}
	.st384{fill:#D87990;}
	.st385{fill:#F2869B;}
	.st386{fill:#EF8499;}
	.st387{fill:#649CD7;}
	.st388{fill:#639CDB;}
	.st389{fill:#C8ED8D;}
	.st390{fill:#A9DB83;}
	.st391{fill:#9BCF76;}
	.st392{fill:#7EAC58;}
	.st393{fill:#8CC463;}
	.st394{fill:#7FAC5B;}
	.st395{fill:#769C55;}
	.st396{fill:#6A894D;}
	.st397{fill:#769B56;}
	.st398{fill:#9BCC75;}
	.st399{fill:#AF5641;}
	.st400{fill:#F4D576;}
	.st401{fill:#76A055;}
	.st402{fill:#628347;}
	.st403{fill:#4F7B9F;}
	.st404{fill:#466D86;}
	.st405{fill:#4D789C;}
</style>
<g id="BULINE">
	<circle id="XMLID_992_" class="st1" cx="256" cy="256" r="256"/>
</g>
<g id="Icons">
	<g id="XMLID_993_">
		<g id="XMLID_1586_">
			<path id="XMLID_1745_" class="st45" d="M492.4,354.4c-0.9,2.2-1.8,4.3-2.8,6.5c-1.8,4-3.7,8-5.7,11.9c-7.5,4.5-17.8,7-23.2,12.7
				c-7.9,8.3-8.5,26.4-18.5,31.9c-1.6,0.9-3.3,1.4-5.1,1.6c-9.6,1.2-22.2-5-31.7-3.2c-0.3,0.1-0.6,0.1-0.9,0.2
				c-10.7,2.6-21.5,16.1-32.8,14.7c-11.7-1.5-18.7-18.2-28.8-23c-10.4-5-27.8,0-36-7.8c-2.2-2.1-3.5-4.8-4.4-7.9
				c-1.4-4.7-1.6-10.3-2.3-15.6c-0.5-4.4-1.3-8.6-3.1-12c-1-1.9-2.4-3.6-4.1-5.3c-2.2-2.1-4.7-4.2-7.3-6.2c-0.3-0.2-0.6-0.5-0.9-0.7
				c-3.8-3-7.4-6-9.8-9.5c-1.2-1.8-2.1-3.7-2.5-5.8c-1.2-6.5,3-13.3,7-20.1c2.8-4.8,5.4-9.6,6-14.4c0-0.2,0.1-0.5,0.1-0.7
				c0.3-3.7-0.4-7.6-1.4-11.6c-0.2-0.9-0.4-1.7-0.7-2.6c0-0.1-0.1-0.2-0.1-0.3c-1.4-5.1-2.9-10.2-3-14.9c0-2.4,0.3-4.6,1.3-6.7
				c0.4-0.8,0.8-1.5,1.3-2.2c0.8-1.2,1.9-2.2,3.1-3.2c3.1-2.5,7.2-4.4,11.4-6.3c0.7-0.3,1.3-0.6,2-0.9c5-2.2,9.8-4.5,13-7.8
				c2.6-2.7,4.4-6.4,6-10.4c0-0.1,0.1-0.2,0.1-0.3c1.1-2.7,2.1-5.5,3.1-8.1c0.8-2.1,1.7-4.1,2.8-5.9c1.4-2.5,3.1-4.7,5.2-6.2
				c0.3-0.2,0.6-0.4,0.9-0.6c0.1-0.1,0.3-0.2,0.4-0.2c1.8-1,3.7-1.5,5.8-1.7c4.2-0.4,8.9,0.6,13.7,1.6c0.9,0.2,1.8,0.4,2.7,0.6
				c0.8,0.2,1.5,0.3,2.3,0.5c0.3,0.1,0.7,0.1,1,0.2c0.6,0.1,1.3,0.2,1.9,0.3c1.3,0.2,2.6,0.4,3.8,0.4c2,0.1,3.9,0.1,5.7-0.3
				c2.1-0.4,4.1-1.2,6.2-2.3c1.2-0.6,2.4-1.3,3.6-2c1.6-1,3.1-2,4.7-3.1c6.3-4.2,12.7-8.3,19.2-7.5c0.3,0,0.5,0.1,0.8,0.1
				c1.8,0.3,3.4,1,5,2c1,0.6,2,1.3,2.9,2.1c1,0.8,2,1.7,3,2.7c0.5,0.5,1,1,1.5,1.6c4.9,5.1,9.4,11.2,14.7,14.1
				c0.3,0.2,0.5,0.3,0.8,0.4c5.1,2.4,11.8,2.5,18.4,2.8c6.8,0.3,13.5,1,17.7,5c2.8,2.6,4.1,6.3,5,10.4c1.7,8.3,1.1,18.3,4.8,25
				c0,0,0,0.1,0.1,0.1c5.4,9.9,22.5,16.1,24.6,27.5c2.1,11-11.5,22.9-13,34.5C486.7,336.4,491.1,345.9,492.4,354.4z"/>
			<path id="XMLID_1625_" class="st20" d="M492.4,354.4c-0.9,2.2-1.8,4.3-2.8,6.5c-1.8,4-3.7,8-5.7,11.9c-7.5,4.5-17.8,7-23.2,12.7
				c-7.9,8.3-8.5,26.4-18.5,31.9c-1.6,0.9-3.3,1.4-5.1,1.6c-9.6,1.2-22.2-5-31.7-3.2c-0.3,0.1-0.6,0.1-0.9,0.2
				c-0.3-0.2-0.5-0.3-0.8-0.4c-10.5-5-27.8,0-36-7.8c-1.5-1.4-2.6-3.1-3.4-5c-3.8-8.9-1.9-22.3-6.4-30.5
				c-5.4-10-22.5-16.1-24.6-27.5c-0.9-4.7,1.1-9.7,3.8-14.7c3.6-6.6,8.3-13.2,9.1-19.9c0.2-1.3,0.2-2.7,0.1-4.1
				c-0.2-3.6-1.2-7.5-2.2-11.3c-0.7-2.7-1.5-5.3-2-7.9c-1.1-4.9-1.5-9.5,0.4-13.5c3-6.3,10.6-9.3,18-12.6c2.4-1,4.7-2.1,6.9-3.3
				c2.3-1.3,4.3-2.7,5.9-4.4c4.2-4.5,6.4-11.8,9-18.4c0.5-1.2,1-2.5,1.6-3.6c1.9-4.2,4.4-7.8,8-9.8c10-5.4,25.5,3.8,36.8,1.6
				c0.3-0.1,0.6-0.1,0.9-0.2c0.3,0.2,0.5,0.3,0.8,0.4c5.1,2.4,11.8,2.5,18.4,2.8c6.8,0.3,13.5,1,17.7,5c2.8,2.6,4.1,6.3,5,10.4
				c1.7,8.3,1.1,18.3,4.8,25c0,0,0,0.1,0.1,0.1c5.4,9.9,22.5,16.1,24.6,27.5c2.1,11-11.5,22.9-13,34.5
				C486.7,336.4,491.1,345.9,492.4,354.4z"/>
			<path id="XMLID_1592_" class="st3" d="M469.8,243.2c-8.6,9.2-20,12.4-25.5,7.3s-3-16.7,5.6-25.9c8.6-9.2,25.5-7.3,25.5-7.3
				S478.3,234,469.8,243.2z"/>
			<path id="XMLID_1591_" class="st45" d="M425.4,322.4c-12.3-2.7-20.9-10.9-19.2-18.2c1.6-7.3,12.9-11.1,25.1-8.4
				c12.3,2.7,19.2,18.2,19.2,18.2S437.7,325.1,425.4,322.4z"/>
			<path id="XMLID_1590_" class="st52" d="M383.7,235.8c9.7,8,13.7,19.1,8.9,25c-4.8,5.8-16.5,4.1-26.2-3.9c-9.7-8-8.9-25-8.9-25
				S374,227.8,383.7,235.8z"/>
			<path id="XMLID_1589_" class="st52" d="M347.3,305.9c12.5-1.4,23.3,3.6,24.1,11c0.8,7.5-8.6,14.7-21.1,16.1
				c-12.5,1.4-24.1-11-24.1-11S334.9,307.3,347.3,305.9z"/>
			<path id="XMLID_1588_" class="st52" d="M315.4,230.8c8.6,9.1,11.2,20.7,5.8,25.9c-5.5,5.2-16.9,2-25.5-7.1s-5.8-25.9-5.8-25.9
				S306.7,221.7,315.4,230.8z"/>
			<path id="XMLID_1587_" class="st52" d="M274.1,289.9c12.4-1.6,23.3,3.1,24.3,10.6c1,7.5-8.3,14.8-20.8,16.5
				c-12.4,1.6-24.3-10.6-24.3-10.6S261.7,291.5,274.1,289.9z"/>
		</g>
		<g id="XMLID_1577_">
			<path id="XMLID_1729_" class="st45" d="M199.6,339.5c-0.1,0.3-0.1,0.6-0.2,0.8c-0.1,0.5-0.3,1-0.5,1.5c-0.1,0.1-0.1,0.3-0.2,0.4
				c-0.1,0.1-0.2,0.3-0.2,0.5c-0.1,0.1-0.2,0.3-0.2,0.4c-0.1,0.2-0.2,0.3-0.3,0.5c-0.1,0.2-0.3,0.4-0.5,0.7
				c-0.1,0.2-0.3,0.4-0.5,0.6c-0.5,0.7-1.1,1.4-1.8,2c-0.3,0.3-0.6,0.5-0.9,0.8h0c-0.3,0.3-0.6,0.6-0.9,0.9c-0.3,0.3-0.7,0.6-1,0.8
				c-0.3,0.3-0.7,0.6-1,0.8c-0.3,0.2-0.6,0.5-0.9,0.7c-0.5,0.4-1.1,0.8-1.6,1.3c-0.9,0.7-1.8,1.4-2.7,2.1c-0.3,0.2-0.6,0.5-0.9,0.7
				c-0.7,0.6-1.4,1.2-2.1,1.8c-0.2,0.2-0.4,0.4-0.6,0.6c-0.7,0.6-1.3,1.3-1.8,2c-0.2,0.3-0.4,0.5-0.6,0.8c-0.2,0.3-0.4,0.5-0.6,0.8
				c-0.2,0.3-0.4,0.5-0.5,0.8c-0.3,0.5-0.5,0.9-0.7,1.4c-0.1,0.2-0.1,0.3-0.2,0.5c-0.1,0.2-0.2,0.5-0.3,0.7
				c-0.1,0.3-0.2,0.5-0.3,0.8c-0.1,0.3-0.2,0.6-0.3,0.9c0,0,0,0.1,0,0.1c-0.1,0.3-0.2,0.6-0.2,0.9c0,0.2-0.1,0.3-0.1,0.5
				c-0.1,0.3-0.1,0.6-0.2,0.8c-0.1,0.2-0.1,0.4-0.1,0.6c-0.3,1.5-0.5,3-0.7,4.5c-0.1,0.5-0.1,1.1-0.2,1.6c0,0.3-0.1,0.7-0.1,1
				c-0.2,1.4-0.3,2.7-0.5,4c0,0.3-0.1,0.7-0.2,1c0,0.3-0.1,0.6-0.2,1c-0.1,0.3-0.1,0.6-0.2,1c-0.1,0.3-0.2,0.6-0.2,0.9
				c-0.2,0.7-0.4,1.3-0.6,2c-0.1,0.2-0.2,0.4-0.2,0.6c-0.1,0.2-0.2,0.5-0.3,0.7c-0.3,0.6-0.6,1.1-0.9,1.6c-0.1,0.2-0.3,0.4-0.4,0.6
				c-0.2,0.2-0.3,0.4-0.5,0.6c-0.1,0.1-0.2,0.2-0.3,0.3c-0.1,0.1-0.3,0.3-0.4,0.4c-0.1,0.1-0.3,0.2-0.4,0.4c-0.5,0.4-0.9,0.7-1.4,1
				c-0.2,0.1-0.5,0.3-0.7,0.4c0,0-0.1,0-0.1,0c-0.2,0.1-0.5,0.2-0.8,0.3c-0.3,0.1-0.5,0.2-0.8,0.3c-0.3,0.1-0.6,0.2-0.9,0.3
				c-0.3,0.1-0.6,0.2-0.9,0.2c-0.3,0.1-0.6,0.2-0.9,0.2c-0.3,0.1-0.6,0.1-0.9,0.2c-0.3,0-0.5,0.1-0.8,0.1c-0.1,0-0.2,0-0.3,0
				c-0.2,0-0.5,0.1-0.8,0.1c-2.6,0.3-5.3,0.3-8,0.4c-0.6,0-1.1,0-1.7,0.1c-0.9,0-1.8,0.1-2.6,0.2c-0.2,0-0.4,0-0.6,0.1
				c-0.3,0-0.6,0.1-1,0.1c-0.3,0-0.6,0.1-0.9,0.1c-0.6,0.1-1.2,0.2-1.8,0.3c-0.2,0-0.3,0.1-0.4,0.1c-0.2,0-0.3,0.1-0.5,0.1
				c-0.6,0.1-1.1,0.3-1.7,0.5c-0.3,0.1-0.5,0.2-0.8,0.3c-0.5,0.2-1.1,0.5-1.6,0.8c-0.2,0.1-0.4,0.2-0.6,0.4c-0.3,0.2-0.6,0.4-1,0.7
				c-0.2,0.1-0.3,0.2-0.4,0.3c-0.2,0.1-0.4,0.3-0.6,0.5c-0.5,0.4-0.9,0.8-1.4,1.2c-0.2,0.2-0.4,0.4-0.6,0.5c-1.1,1-2.1,2.1-3.1,3.2
				c-0.4,0.4-0.7,0.8-1.1,1.2c-0.1,0.1-0.2,0.2-0.3,0.3c-0.4,0.4-0.8,0.8-1.2,1.2c-0.3,0.3-0.5,0.6-0.8,0.8
				c-0.4,0.5-0.9,0.9-1.3,1.4c-0.5,0.5-1,0.9-1.4,1.4c-0.2,0.2-0.5,0.4-0.7,0.6c-0.8,0.7-1.6,1.3-2.4,1.8c-0.2,0.1-0.4,0.3-0.7,0.4
				c0,0,0,0,0,0c-0.3,0.2-0.5,0.3-0.8,0.4c-0.5,0.2-0.9,0.5-1.4,0.6c-0.2,0.1-0.3,0.1-0.5,0.2c-0.1,0-0.2,0.1-0.3,0.1
				c-0.1,0-0.3,0.1-0.5,0.1c-0.1,0-0.2,0.1-0.3,0.1c-0.2,0-0.3,0.1-0.5,0.1c-0.2,0-0.5,0.1-0.8,0.1c-0.4,0-0.8,0.1-1.2,0.1
				c-0.3,0-0.5,0-0.8,0c-0.2,0-0.4,0-0.6-0.1c-0.2,0-0.4-0.1-0.7-0.1c-0.2,0-0.4-0.1-0.5-0.1c-0.2,0-0.3-0.1-0.5-0.1
				c-0.4-0.1-0.7-0.2-1.1-0.3c-0.2-0.1-0.5-0.2-0.8-0.3c-0.2-0.1-0.4-0.2-0.6-0.2c-0.3-0.1-0.7-0.3-1-0.5c-0.5-0.3-1.1-0.5-1.6-0.9
				c-0.3-0.1-0.6-0.3-0.8-0.5c-0.3-0.2-0.5-0.3-0.8-0.5c-0.2-0.2-0.5-0.3-0.7-0.5c-2.8-1.8-5.7-3.9-8.5-5.6
				c-0.2-0.1-0.4-0.3-0.7-0.4c-0.4-0.3-0.9-0.5-1.3-0.7c-0.2-0.1-0.4-0.2-0.7-0.3c-0.2-0.1-0.4-0.2-0.6-0.3
				c-0.2-0.1-0.4-0.2-0.7-0.3c-0.6-0.2-1.2-0.5-1.8-0.6c-0.2-0.1-0.5-0.1-0.7-0.2c-0.3-0.1-0.6-0.1-0.8-0.2c-0.2,0-0.5-0.1-0.8-0.1
				c-2.2-0.3-4.5-0.1-7,0.2c-1.1,0.2-2.2,0.3-3.3,0.6c-6.8,1.3-13.9,3.2-19.3,0.2c-8.4-4.8-8.7-19.6-14.8-26.4
				c-4.6-5-13.5-7.3-19.6-11.2c-0.8-1.7-1.6-3.4-2.3-5.1c-1.3-3-2.6-6-3.9-9.1c1.1-7.1,5.1-15.2,4.3-21.7
				c-1.1-9.2-12.1-19.2-10.2-28.5c1.1-5.3,6.4-9.2,11.5-13.2c3.6-2.8,7.1-5.6,9-9.1c1.6-2.8,2.3-6.2,2.8-9.8
				c1-7.3,1.2-15.1,5.7-19.3c0.4-0.4,0.8-0.7,1.2-1c4.2-2.9,10.2-2.9,16.2-3.1c4.5-0.1,8.9-0.3,12.3-1.9c2.9-1.3,5.4-3.7,7.9-6.3
				c5-5.2,9.8-11.5,16-12.2c4.4-0.5,8.6,1.8,12.9,4.7c4.8,3.2,9.7,7,14.6,8c9,1.8,21.9-5.6,30.3-0.9c4.5,2.5,6.7,8,8.6,13.5
				c1.6,4.5,3.1,9.1,5.7,12.3c0.1,0.1,0.2,0.2,0.2,0.3v0c0.1,0.1,0.2,0.2,0.2,0.3c0.2,0.2,0.4,0.4,0.6,0.6c1.7,1.7,3.9,3,6.3,4.3
				c0.3,0.2,0.6,0.3,0.9,0.5c0.3,0.1,0.6,0.3,0.9,0.5c0.3,0.1,0.6,0.3,0.9,0.4c1.1,0.5,2.3,1.1,3.4,1.6c0.4,0.2,0.9,0.4,1.3,0.6
				c0.5,0.2,1,0.5,1.5,0.8c0.4,0.2,0.8,0.4,1.2,0.6c0.2,0.1,0.4,0.2,0.5,0.3c0.2,0.1,0.4,0.2,0.6,0.4c1,0.6,1.9,1.2,2.7,1.8h0
				c0.1,0.1,0.1,0.1,0.2,0.2c0.2,0.2,0.4,0.4,0.6,0.5c0.2,0.2,0.4,0.3,0.6,0.5c0.2,0.2,0.4,0.3,0.5,0.5c0.2,0.2,0.3,0.4,0.5,0.5
				c0,0,0.1,0.1,0.1,0.1c0.1,0.1,0.2,0.3,0.3,0.4c0.1,0.1,0.2,0.3,0.3,0.5c0.1,0.2,0.2,0.4,0.4,0.5c0.1,0.1,0.2,0.3,0.2,0.4
				c0.1,0.2,0.2,0.4,0.3,0.7c0.7,1.6,1,3.4,1,5.2c0,0.3,0,0.7,0,1c0,0,0,0,0,0c0,0.7-0.1,1.4-0.2,2.1c0,0.4-0.1,0.7-0.2,1.1
				c0,0.1,0,0.2-0.1,0.3c-0.1,0.3-0.1,0.7-0.2,1c-0.1,0.7-0.3,1.3-0.5,2c-0.1,0.3-0.2,0.7-0.3,1c-0.1,0.3-0.1,0.5-0.2,0.8
				c-0.1,0.5-0.3,1-0.4,1.5c-0.1,0.5-0.3,1-0.4,1.4c0,0.1-0.1,0.2-0.1,0.3c-0.1,0.5-0.3,1-0.4,1.5c-0.2,0.9-0.5,1.8-0.7,2.7
				c-0.1,0.5-0.2,1-0.3,1.4c0,0,0,0,0,0c-0.1,0.2-0.1,0.5-0.1,0.7c-0.1,0.3-0.1,0.7-0.2,1c-0.1,0.3-0.1,0.7-0.1,1
				c0,0.3-0.1,0.7-0.1,1c0,0.1,0,0.2,0,0.2c0,0.3,0,0.7,0,1c0,0.6,0,1.2,0.1,1.7c0.1,0.5,0.2,1.1,0.3,1.6c0,0.2,0.1,0.4,0.2,0.6
				c0.1,0.3,0.2,0.7,0.3,1c0.2,0.5,0.4,1.1,0.6,1.6c0.2,0.5,0.4,0.9,0.6,1.4c0.1,0.2,0.2,0.4,0.3,0.6c0.3,0.6,0.6,1.2,0.9,1.9
				c0.2,0.4,0.4,0.8,0.7,1.2c0.2,0.4,0.5,0.8,0.7,1.3c0.1,0.2,0.2,0.4,0.3,0.6c0.2,0.4,0.5,0.8,0.7,1.2c0.4,0.6,0.7,1.3,1.1,1.9
				c0.1,0.2,0.2,0.4,0.3,0.6c0.7,1.4,1.4,2.7,2,4.1c0.1,0.3,0.2,0.5,0.3,0.8c0.1,0.3,0.2,0.6,0.3,0.8c0.1,0.3,0.2,0.5,0.2,0.8
				c0.1,0.3,0.2,0.5,0.2,0.8c0.1,0.6,0.2,1.1,0.3,1.7c0,0.2,0.1,0.5,0.1,0.7C199.8,337.4,199.8,338.5,199.6,339.5z"/>
			<path id="XMLID_1584_" class="st20" d="M179,361.7c-4.8,8.4-1.7,22.9-8.5,29.1c-7,6.4-21.2,2.1-29.7,5.9
				c-8.6,3.9-14.6,17.5-24,18.5c-9.2,1.1-18.2-10.7-27.5-12.6c-0.3,0-0.5-0.1-0.8-0.1c-0.2-0.2-0.3-0.4-0.5-0.6
				c-6.4-7-21.2-8.6-25-17.1c-3.9-8.6,4.6-20.7,3.5-30.1c-1.1-9.3-12.1-19.2-10.2-28.5c1.8-9,15.8-13.8,20.6-22.3
				c4.8-8.4,1.7-22.9,8.5-29.1c7-6.4,21.2-2.1,29.7-5.9c8.5-3.9,14.6-17.5,23.9-18.5c9.3-1.1,18.2,10.7,27.5,12.6
				c0.3,0,0.5,0.1,0.8,0.1c0.2,0.2,0.3,0.4,0.5,0.6c6.4,7,21.2,8.6,25,17.1c3.9,8.6-4.6,20.7-3.5,30.1c1.1,9.2,12.1,19.2,10.2,28.5
				C197.8,348.5,183.8,353.3,179,361.7z"/>
			<path id="XMLID_1583_" class="st3" d="M191.7,291.3c-9.4,4.3-19,3.3-21.6-2.3s2.9-13.7,12.2-18c9.4-4.3,21.6,2.3,21.6,2.3
				S201,287,191.7,291.3z"/>
			<path id="XMLID_1582_" class="st45" d="M133.5,337.9c-8.5-5.9-12.5-14.7-9-19.8c3.5-5.1,13.2-4.5,21.7,1.4c8.5,5.9,9,19.8,9,19.8
				S142,343.7,133.5,337.9z"/>
			<path id="XMLID_1581_" class="st52" d="M128.5,259.1c4.9,9.1,4.5,18.8-0.9,21.7c-5.4,3-13.8-2-18.8-11s0.9-21.7,0.9-21.7
				S123.6,250.1,128.5,259.1z"/>
			<path id="XMLID_1580_" class="st52" d="M79.2,301.2c9.9,2.8,16.6,9.9,14.9,15.8c-1.7,6-11.1,8.5-21,5.7
				c-9.9-2.8-14.9-15.8-14.9-15.8S69.2,298.4,79.2,301.2z"/>
			<path id="XMLID_1579_" class="st52" d="M78,234.2c3.8,9.6,2.2,19.2-3.6,21.5c-5.8,2.3-13.5-3.7-17.2-13.3
				c-3.8-9.6,3.6-21.5,3.6-21.5S74.3,224.6,78,234.2z"/>
			<path id="XMLID_1578_" class="st52" d="M28.4,266.4c10,2.6,16.8,9.6,15.2,15.5c-1.6,6-10.9,8.7-20.9,6.1
				c-10-2.6-15.2-15.5-15.2-15.5S18.4,263.8,28.4,266.4z"/>
		</g>
		<path id="XMLID_1799_" class="st48" d="M489.6,360.8c-1.8,4-3.7,8-5.7,11.9C441.5,455.4,355.4,512.1,256,512.1
			c-13.4,0-26.6-1-39.4-3c-0.6-0.1-1.3-0.2-1.9-0.3c-0.4-0.1-0.9-0.2-1.3-0.2c-1.4-0.2-2.9-0.5-4.3-0.8c-4-0.7-7.9-1.6-11.8-2.5
			c-2-0.5-3.9-0.9-5.9-1.5c-0.7-0.2-1.5-0.4-2.2-0.6c-4.2-1.1-8.3-2.3-12.4-3.7c-6.7-2.2-13.3-4.7-19.8-7.4
			c-3.1-1.3-6.2-2.6-9.2-4.1c-10.9-5.1-21.4-11-31.4-17.5c-5.5-3.6-10.9-7.4-16.1-11.4c-32-24.6-58-56.5-75.5-93.3
			c-0.8-1.7-1.6-3.4-2.3-5.1c10.1-9.4,22-18.1,35.2-26c6.5-3.9,13.4-7.6,20.7-11.1c5.1-2.5,10.4-4.9,15.9-7.1c1-0.4,2.1-0.9,3.1-1.3
			c2.1-0.8,4.2-1.7,6.3-2.5c5.1-1.9,10.3-3.8,15.7-5.5c3.6-1.2,7.3-2.3,11.1-3.4h0c10.6-3.1,21.6-5.8,33-8.2
			c4.1-0.8,8.2-1.6,12.3-2.3c4.8-0.8,9.6-1.6,14.4-2.3c0.4,0,0.8-0.1,1.2-0.2c0.5-0.1,1-0.1,1.5-0.2c0.2,0,0.4-0.1,0.6-0.1
			c7.6-1,15.3-1.8,23.2-2.5c1.2-0.1,2.3-0.2,3.5-0.3c11.8-0.9,23.7-1.3,35.9-1.3c0.7,0,1.5,0,2.2,0c5.2,0,10.4,0.1,15.5,0.3h0
			c3.2,0.1,6.4,0.3,9.6,0.4c0.1,0,0.2,0,0.3,0c4.4,0.2,8.8,0.6,13.2,0.9c12,1,23.6,2.5,35,4.3h0c0.7,0.1,1.3,0.2,1.9,0.3
			c3.4,0.6,6.8,1.2,10.2,1.8c23.1,4.5,44.9,10.6,64.8,18.2c7.9,3,15.4,6.2,22.7,9.7h0C454.3,333.5,474,346.4,489.6,360.8z"/>
		<path id="XMLID_1711_" class="st2" d="M425.1,441.2c-33.7,11.2-86.5,21-164.9,17.1c-1.4-0.1-2.8-0.1-4.2-0.2
			c0,0-10.3,6.9-25.9,14.2c-4.2,1.9-8.7,3.9-13.5,5.8c-3.5,1.4-7.2,2.7-10.9,3.9c-0.5,0.2-1,0.3-1.6,0.5c-4.1,1.3-8.4,2.5-12.8,3.5
			c-3.4,0.8-6.9,1.5-10.4,2c-3.7,0.6-7.5,1-11.2,1.2c-5,0.3-10,0.3-15-0.2c-2.3-0.2-4.6-0.5-6.9-0.9c-10.9-5.1-21.4-11-31.4-17.5
			c-5.5-3.6-10.9-7.4-16.1-11.4c-8.6-11.3-15.8-26.3-20.9-45.9c-0.9-3.3-1.1-6.7-0.8-9.9c0.2-2,0.6-3.9,1.2-5.8
			c0.1-0.4,0.2-0.7,0.4-1.1c2-5.7,5.8-10.8,11-14.3c1.4-1,3-2,4.6-3c1.4-0.9,2.9-1.9,4.4-2.8c3.5-2.2,7.4-4.4,11.6-6.7
			c8-4.3,17.3-8.7,27.6-12.7c3.6-1.4,7.2-2.7,11-3.9c12.4-4,26.2-7.3,41.1-9.2c2.3-0.3,4.5-0.5,6.9-0.7h0c6-0.6,12.1-0.9,18.4-0.9
			c10.6-0.1,21.6,0.6,33.1,2.3h0c2,0.3,4.1,0.6,6.2,1c0,0,0.1,0,0.1,0c9.2,1.6,18.8,3.9,28.5,6.9c0.4,0.1,0.7,0.2,1.1,0.4
			c3.4,1,6.8,2.2,10.2,3.5c5.4,2,10.9,4.1,16.4,6.6c0.5,0.2,0.9,0.4,1.3,0.7c0.4,0.2,0.7,0.4,1.1,0.7c9.2,6.1,8.9,20.5-1.5,26
			c-2.6,1.4-3.7,3.7-3.7,6.1c0,3.6,2.7,7.2,7.2,7c13.3-0.5,29.8-0.8,47.7-0.6c18.3,0.2,37.9,1,56.9,2.8c8.7,0.8,14.2,6.7,16,13.4
			C439.3,427.5,435.7,437.7,425.1,441.2z"/>
		<g id="XMLID_1540_">
			<path id="XMLID_1614_" class="st92" d="M321.6,344.5c-1.5,4.7-3.5,10.5-6.1,17.1c-0.3,0.8-0.6,1.7-1,2.5
				c-3.2,8.3-7.3,17.7-12.2,27.7c-6.6,13.4-14.8,28-24.8,42.5c-5.8,8.4-11.6,16.4-17.3,23.9c-16.5,21.7-32.1,39-43.7,48.9
				c-0.7,0.6-1.3,1.1-1.9,1.6c-0.4-0.1-0.9-0.2-1.3-0.2c-1.4-0.2-2.9-0.5-4.3-0.8c-4-0.7-7.9-1.6-11.8-2.5
				c1.1-5.4,3.6-12.5,7.4-20.9c0.3-0.8,0.7-1.6,1.1-2.4c3-6.5,6.7-13.7,10.9-21.4c8-14.5,18.1-30.8,29.8-47.7
				c15.2-22.1,32.2-40.3,46.5-53.9c1-0.9,2-1.9,2.9-2.8c7.4-6.9,13.9-12.4,18.9-16.4C318.1,337.1,322.9,340.4,321.6,344.5z"/>
			<path id="XMLID_1593_" class="st20" d="M315.5,361.6c-0.3,0.8-0.6,1.7-1,2.5c-3.2,8.3-7.3,17.7-12.2,27.7
				c-6.6,13.4-14.8,28-24.8,42.5c-5.8,8.4-11.6,16.4-17.3,23.9c-16.5,21.7-32.1,39-43.7,48.9c-0.7,0.6-1.3,1.1-1.9,1.6
				c-0.4-0.1-0.9-0.2-1.3-0.2c0.9-2.6,1.9-5.5,3.2-8.7c3.3-7.9,7.8-17.3,13.5-27.6c8.1-14.8,18.5-31.6,30.5-49
				c12.8-18.6,26.9-34.5,39.5-47.1c4.7-4.7,9.2-9,13.4-12.7C314.2,362.8,314.8,362.2,315.5,361.6z"/>
			<path id="XMLID_1650_" class="st17" d="M209,507.8c-4-0.7-7.9-1.6-11.8-2.5c-2-0.5-3.9-0.9-5.9-1.5c-0.7-0.2-1.5-0.4-2.2-0.6
				c-4.2-1.1-8.3-2.3-12.4-3.7c-2.3-3.2-4.6-6.7-7-10.4c-13.2-20.5-28.2-48.2-42.4-79.5c-0.1-0.1-0.1-0.2-0.2-0.4
				c-1-2.1-1.9-4.2-2.8-6.3c-4.9-11.4-9.1-22.6-12.7-33.4c-6.7-20.2-11.2-38.9-14.2-54.2c-0.5-2.2-0.9-4.4-1.2-6.4
				c-0.8-4.5-1.5-8.6-2.1-12.4c-0.3-1.9-0.5-3.7-0.8-5.3c-0.7-5.3,5.9-8.3,9.4-4.3c1.8,2.1,3.8,4.4,6,7c2.5,3.1,5.3,6.5,8.2,10.2
				c0.8,1,1.6,2.1,2.5,3.2c2.2,2.9,4.5,5.9,6.8,9.1c0.2,0.3,0.4,0.6,0.6,0.9c5.2,7.1,10.6,15,16,23.5c0.9,1.5,1.9,3,2.8,4.5
				c1.5,2.5,3.1,5.1,4.6,7.7c3.4,5.7,6.7,11.6,9.9,17.8c3.3,6.3,6.5,12.8,9.6,19.5c0.1,0.3,0.3,0.6,0.4,0.9
				c8.2,18,15.3,35.4,21.2,51.4c5.4,14.7,9.7,28.2,12.8,39.9c0.2,0.6,0.3,1.3,0.5,1.9c2.2,8.6,3.7,16.2,4.4,22.4
				C209,507.1,209,507.4,209,507.8z"/>
			<path id="XMLID_1656_" class="st20" d="M216.6,257.5V509c-0.6-0.1-1.3-0.2-1.9-0.3c-0.4-0.1-0.9-0.2-1.3-0.2
				c-1.4-0.2-2.9-0.5-4.3-0.8c-4-0.7-7.9-1.6-11.8-2.5c-2-0.5-3.9-0.9-5.9-1.5V257.5c0-0.4,0-0.8,0.1-1.2c0.3-3.9,2.4-7.2,5.5-9.3
				c0.8-0.6,1.7-1,2.7-1.4c1.2-0.4,2.5-0.7,3.8-0.8c0.2,0,0.4,0,0.6,0c0.2,0,0.4,0,0.6,0c2.8,0.1,5.3,1.1,7.3,2.8
				c0.4,0.3,0.7,0.6,1.1,0.9c2,2,3.3,4.7,3.6,7.7l0,0.4v0C216.6,256.9,216.6,257.2,216.6,257.5z"/>
			<path id="XMLID_1570_" class="st93" d="M216.6,255.1V395c0,5.7-5.7,10.3-12.6,10.3c-7,0-12.6-4.6-12.6-10.3V255.1
				c0-5.7,5.7-10.3,12.6-10.3c3.5,0,6.7,1.1,8.9,3C215.1,249.7,216.6,252.3,216.6,255.1z"/>
			<g id="XMLID_1543_">
				<g id="XMLID_1550_">
					<path id="XMLID_1569_" class="st29" d="M282.4,68c-0.9-1.1-1.8-2.2-2.8-3.3c-13.4-14.6-33.5-19.4-51.3-14
						c-10.7,3.2-22.2,2.8-32.6-1.3c-16-6.4-34.8-4.1-49,6.9c-1.1,0.9-2.2,1.8-3.3,2.8c-19.4,17.9-21.4,47.6-5.2,67.9l-0.1,0.1
						l2.4,2.6l2,2.2l46.5,50.5c9.3,10.1,25,10.7,35.1,1.4l52.6-48.5l2.6-2.4l-0.1-0.1c0.7-0.7,1.3-1.5,2-2.2
						C296.3,112.7,296.9,86.6,282.4,68z"/>
					<path id="XMLID_1568_" class="st29" d="M136.8,354.1c0.9,1.1,1.8,2.2,2.8,3.3c13.4,14.6,33.5,19.4,51.3,14
						c10.7-3.2,22.2-2.8,32.6,1.3c16,6.4,34.8,4.1,49-6.9c1.1-0.9,2.2-1.8,3.3-2.8c19.4-17.9,21.4-47.6,5.2-67.9l0.1-0.1l-2.4-2.6
						l-2-2.2l-46.5-50.5c-9.3-10.1-25-10.7-35.1-1.4l-52.6,48.5l-2.6,2.4l0.1,0.1c-0.7,0.7-1.3,1.5-2,2.2
						C123,309.3,122.4,335.5,136.8,354.1z"/>
					<path id="XMLID_1567_" class="st29" d="M343.1,286.1c1.1-0.9,2.2-1.8,3.3-2.8c14.6-13.4,19.4-33.5,14-51.3
						c-3.2-10.7-2.8-22.2,1.3-32.6c6.4-16,4.1-34.8-6.9-49c-0.9-1.1-1.8-2.2-2.8-3.3c-17.9-19.4-47.6-21.4-67.9-5.2l-0.1-0.1
						l-2.6,2.4l-2.2,2l-50.5,46.5c-10.1,9.3-10.7,25-1.4,35.1l48.5,52.6l2.4,2.6l0.1-0.1c0.7,0.7,1.5,1.3,2.2,2
						C298.4,299.9,324.5,300.5,343.1,286.1z"/>
					<path id="XMLID_1566_" class="st29" d="M64.8,141.5c-1.1,0.9-2.2,1.8-3.3,2.8c-14.6,13.4-19.4,33.5-14,51.3
						c3.2,10.7,2.8,22.2-1.3,32.6c-6.4,16-4.1,34.8,6.9,49c0.9,1.1,1.8,2.2,2.8,3.3c17.9,19.4,47.6,21.4,67.9,5.2l0.1,0.1l2.6-2.4
						l2.2-2l50.5-46.5c10.1-9.3,10.7-25,1.4-35.1l-48.5-52.6l-2.4-2.6l-0.1,0.1c-0.7-0.7-1.5-1.3-2.2-2
						C109.5,127.6,83.3,127,64.8,141.5z"/>
					<g id="XMLID_1563_">
						<path id="XMLID_1565_" class="st94" d="M218.7,120.1l0.1,0c-0.3-21.1,15.8-39,37.1-40.9c1.2-0.1,2.3-0.1,3.5-0.1
							c14.6,0,27.7,7.9,34.8,19.9c4.6,7.8,11.8,13.8,20.2,17c14.1,5.4,24.6,18.4,25.9,34.4c0.1,1.2,0.1,2.3,0.1,3.5
							c0,19.1-13.4,35.5-31.8,39.5c-0.8,0.2-1.6,0.3-2.4,0.4l0,0.1l-2.9,0.2l-57.8,4.9c-11.1,0.9-20.8-7.3-21.7-18.3l-4.7-55.4
							l-0.2-2.4L218.7,120.1z"/>
						<path id="XMLID_1564_" class="st95" d="M219.1,125.4c1.7-0.4,3.5-0.6,5.3-0.8c1.2-0.1,2.3-0.2,3.5-0.2
							c14.6,0,27.7,7.9,34.8,19.9c4.6,7.8,11.7,13.8,20.2,17c13.4,5.1,23.5,17.1,25.6,32c-0.8,0.2-1.6,0.3-2.4,0.4l0,0.1l-2.9,0.2
							l-57.8,4.9c-11.1,0.9-20.8-7.3-21.7-18.3L219.1,125.4z"/>
					</g>
					<g id="XMLID_1560_">
						<path id="XMLID_1562_" class="st94" d="M191.2,120.1l-0.1,0c0.3-21.1-15.8-39-37.1-40.9c-1.2-0.1-2.3-0.1-3.5-0.1
							c-14.6,0-27.7,7.9-34.8,19.9c-4.6,7.8-11.8,13.8-20.2,17c-14.1,5.4-24.6,18.4-25.9,34.4c-0.1,1.2-0.1,2.3-0.1,3.5
							c0,19.1,13.4,35.5,31.8,39.5c0.8,0.2,1.6,0.3,2.4,0.4l0,0.1l2.9,0.2l57.8,4.9c11.1,0.9,20.8-7.3,21.7-18.3l4.7-55.4l0.2-2.4
							L191.2,120.1z"/>
						<path id="XMLID_1561_" class="st95" d="M190.8,125.4c-1.7-0.4-3.5-0.6-5.3-0.8c-1.2-0.1-2.3-0.2-3.5-0.2
							c-14.6,0-27.7,7.9-34.8,19.9c-4.6,7.8-11.7,13.8-20.2,17c-13.4,5.1-23.5,17.1-25.6,32c0.8,0.2,1.6,0.3,2.4,0.4l0,0.1l2.9,0.2
							l57.8,4.9c11.1,0.9,20.8-7.3,21.7-18.3L190.8,125.4z"/>
					</g>
					<g id="XMLID_1557_">
						<path id="XMLID_1559_" class="st94" d="M191.2,304.6l-0.1,0c0.3,21.1-15.8,39-37.1,40.9c-1.2,0.1-2.3,0.1-3.5,0.1
							c-14.6,0-27.7-7.9-34.8-19.9c-4.6-7.8-11.8-13.8-20.2-17c-14.1-5.4-24.6-18.4-25.9-34.4c-0.1-1.2-0.1-2.3-0.1-3.5
							c0-19.1,13.4-35.5,31.8-39.5c0.8-0.2,1.6-0.3,2.4-0.4l0-0.1l2.9-0.2l57.8-4.9c11.1-0.9,20.8,7.3,21.7,18.3l4.7,55.4l0.2,2.4
							L191.2,304.6z"/>
						<path id="XMLID_1558_" class="st95" d="M190.8,299.3c-1.7,0.4-3.5,0.6-5.3,0.8c-1.2,0.1-2.3,0.2-3.5,0.2
							c-14.6,0-27.7-7.9-34.8-19.9c-4.6-7.8-11.7-13.8-20.2-17c-13.4-5.1-23.5-17.1-25.6-32c0.8-0.2,1.6-0.3,2.4-0.4l0-0.1l2.9-0.2
							l57.8-4.9c11.1-0.9,20.8,7.3,21.7,18.3L190.8,299.3z"/>
					</g>
					<g id="XMLID_1554_">
						<path id="XMLID_1556_" class="st94" d="M218.7,304.6l0.1,0c-0.3,21.1,15.8,39,37.1,40.9c1.2,0.1,2.3,0.1,3.5,0.1
							c14.6,0,27.7-7.9,34.8-19.9c4.6-7.8,11.8-13.8,20.2-17c14.1-5.4,24.6-18.4,25.9-34.4c0.1-1.2,0.1-2.3,0.1-3.5
							c0-19.1-13.4-35.5-31.8-39.5c-0.8-0.2-1.6-0.3-2.4-0.4l0-0.1l-2.9-0.2l-57.8-4.9c-11.1-0.9-20.8,7.3-21.7,18.3l-4.7,55.4
							l-0.2,2.4L218.7,304.6z"/>
						<path id="XMLID_1555_" class="st95" d="M219.1,299.3c1.7,0.4,3.5,0.6,5.3,0.8c1.2,0.1,2.3,0.2,3.5,0.2
							c14.6,0,27.7-7.9,34.8-19.9c4.6-7.8,11.7-13.8,20.2-17c13.4-5.1,23.5-17.1,25.6-32c-0.8-0.2-1.6-0.3-2.4-0.4l0-0.1l-2.9-0.2
							l-57.8-4.9c-11.1-0.9-20.8,7.3-21.7,18.3L219.1,299.3z"/>
					</g>
					<g id="XMLID_1551_">
						<path id="XMLID_1553_" class="st96" d="M247.1,215.7c0,19.1-12.6,35.3-29.9,40.7c0,0,0,0,0,0c-4,1.2-8.3,1.9-12.7,1.9
							c-23.6,0-42.7-19.1-42.7-42.7c0-23.5,19.1-42.7,42.7-42.7c4.4,0,8.7,0.7,12.7,1.9c0,0,0,0,0,0
							C234.5,180.4,247.1,196.6,247.1,215.7z"/>
						<path id="XMLID_1552_" class="st42" d="M247.1,215.7c0,19.1-12.6,35.3-29.9,40.7c0,0,0,0,0,0c-17.4-5.4-29.9-21.6-29.9-40.7
							c0-19.1,12.6-35.3,29.9-40.7c0,0,0,0,0,0C234.5,180.4,247.1,196.6,247.1,215.7z"/>
					</g>
				</g>
				<circle id="XMLID_1549_" class="st97" cx="224.5" cy="197.7" r="8.4"/>
				<circle id="XMLID_1548_" class="st97" cx="232.9" cy="225.6" r="8.4"/>
				<circle id="XMLID_1547_" class="st97" cx="204.4" cy="243.5" r="8.4"/>
				<circle id="XMLID_1546_" class="st97" cx="179.2" cy="225.6" r="8.4"/>
				<circle id="XMLID_1545_" class="st97" cx="187.6" cy="195.7" r="8.4"/>
				<circle id="XMLID_1544_" class="st97" cx="204.4" cy="213.8" r="8.4"/>
			</g>
			<path id="XMLID_1638_" class="st92" d="M189.1,503.2c-4.2-1.1-8.3-2.3-12.4-3.7c-6.7-2.2-13.3-4.7-19.8-7.4
				c-3.1-1.3-6.2-2.6-9.2-4.1c-10.9-5.1-21.4-11-31.4-17.5c-15-23.7-26.3-47.4-34.6-67.8c-0.7-1.8-1.4-3.5-2.1-5.3
				c-0.2-0.5-0.4-1-0.6-1.5v0c-5.7-14.8-9.7-27.5-12.4-36.8c-0.1-0.2-0.1-0.4-0.2-0.7c-0.4-1.4-0.2-2.7,0.3-3.7
				c1.4-3,5.5-4.4,8.4-1.8c4.6,4,10.2,9,16.5,15c2.7,2.6,5.5,5.3,8.4,8.3c7.6,7.7,15.9,16.6,24.3,26.7c1.4,1.6,2.8,3.3,4.1,5
				c9.3,11.4,18.7,24.1,27.6,38c9.2,14.5,17.6,28.7,25,42C183.8,493.1,186.5,498.2,189.1,503.2z"/>
			<path id="XMLID_1620_" class="st20" d="M189.1,503.2c-4.2-1.1-8.3-2.3-12.4-3.7c-6.7-2.2-13.3-4.7-19.8-7.4
				c-0.8-1-1.5-2.1-2.2-3.2c-6.4-9.1-12.9-18.8-19.4-29c-9.9-15.6-18.2-31.2-25.1-45.9c-5.9-12.5-10.7-24.4-14.6-35
				c-1.4-3.9-2.7-7.6-3.9-11.1c2.7,2.6,5.5,5.3,8.4,8.3c7.6,7.7,15.9,16.6,24.3,26.7c1.4,1.6,2.8,3.3,4.1,5
				c9.3,11.4,18.7,24.1,27.6,38c9.2,14.5,17.6,28.7,25,42C183.8,493.1,186.5,498.2,189.1,503.2z"/>
		</g>
		<g id="XMLID_1043_">
			<path id="XMLID_1539_" class="st98" d="M453.8,125.4l23.3-31.9c1.3-1.8-0.1-4.4-2.4-4.2l-40.2,4.3L453.8,125.4z"/>
			<path id="XMLID_1538_" class="st99" d="M384,102.8l0.6-21.1c0.2-5.8,2.5-11.3,6.6-15.4l7.7-7.8c3.4-3.5,4.8-8.5,3.7-13.2
				l-3.4-14.5"/>
			<path id="XMLID_1537_" class="st100" d="M424.9,170.3l18.9,9.3c5.2,2.5,11.2,3,16.7,1.3l10.5-3.2c4.7-1.4,9.8-0.4,13.5,2.8
				l11.2,9.7"/>
			<path id="XMLID_1536_" class="st101" d="M278.6,169c13.1-7.9,29.2-6.5,40.7,2.3c3.4,2.6,6.4,5.9,8.8,9.8
				c10.3,17,4.9,39.1-12.1,49.4c-17,10.3-39.1,4.9-49.4-12.1c-2.4-3.9-3.9-8.1-4.7-12.3C259.2,191.9,265.5,176.9,278.6,169z"/>
			
				<ellipse id="XMLID_1535_" transform="matrix(0.8554 -0.518 0.518 0.8554 -55.7398 177.7846)" class="st102" cx="290.5" cy="188.7" rx="33.6" ry="23"/>
			<path id="XMLID_1534_" class="st2" d="M376,220.4c0.1,0,0.2,0,0.3,0c-0.1,0-0.1,0-0.2,0C376,220.4,376,220.4,376,220.4z"/>
			<path id="XMLID_1533_" class="st2" d="M397.3,214.7c-0.4,0.2-0.8,0.3-1.2,0.4C396.5,215,396.9,214.8,397.3,214.7z"/>
			<path id="XMLID_1532_" class="st2" d="M302.2,183.3c-0.1-0.2-0.2-0.5-0.2-0.7C302,182.8,302.1,183,302.2,183.3z"/>
			<path id="XMLID_1531_" class="st2" d="M301.3,180.5c-0.1-0.2-0.1-0.4-0.2-0.6C301.2,180.1,301.3,180.3,301.3,180.5z"/>
			<path id="XMLID_1530_" class="st2" d="M328.6,213.8c0.1,0.1,0.3,0.1,0.4,0.2c-0.1,0-0.1-0.1-0.2-0.1
				C328.7,213.8,328.7,213.8,328.6,213.8z"/>
			<path id="XMLID_1529_" class="st2" d="M352.5,220.9c0.1,0,0.2,0,0.2,0c0,0-0.1,0-0.1,0C352.6,220.9,352.6,220.9,352.5,220.9z"/>
			<path id="XMLID_1528_" class="st2" d="M372.1,220.9c0.3,0,0.6-0.1,0.8-0.1c-0.2,0-0.5,0-0.7,0.1
				C372.2,220.9,372.2,220.9,372.1,220.9z"/>
			<path id="XMLID_1527_" class="st2" d="M375.3,220.5c0.1,0,0.1,0,0.2,0C375.4,220.5,375.4,220.5,375.3,220.5
				C375.3,220.5,375.3,220.5,375.3,220.5z"/>
			<path id="XMLID_1526_" class="st2" d="M303.1,185.8c0-0.1-0.1-0.1-0.1-0.2C303,185.7,303.1,185.7,303.1,185.8z"/>
			<path id="XMLID_1525_" class="st2" d="M362.7,221.5c-0.1,0-0.3,0-0.4,0C362.4,221.5,362.6,221.5,362.7,221.5z"/>
			<path id="XMLID_1524_" class="st2" d="M320.9,208.9c0.1,0.1,0.3,0.2,0.4,0.3c-0.1,0-0.1-0.1-0.2-0.1
				C321,209.1,320.9,209,320.9,208.9z"/>
			<path id="XMLID_1523_" class="st2" d="M300.6,177.3c0-0.1,0-0.2-0.1-0.3C300.5,177.1,300.5,177.2,300.6,177.3z"/>
			<path id="XMLID_1522_" class="st2" d="M379.8,219.8c-0.1,0-0.2,0-0.2,0C379.6,219.8,379.7,219.8,379.8,219.8z"/>
			<path id="XMLID_1521_" class="st2" d="M394,215.9c-0.4,0.1-0.8,0.3-1.3,0.4C393.2,216.2,393.6,216,394,215.9z"/>
			<path id="XMLID_1520_" class="st2" d="M323.3,210.7c0.1,0.1,0.2,0.1,0.3,0.2c-0.1,0-0.1-0.1-0.2-0.1
				C323.4,210.7,323.4,210.7,323.3,210.7z"/>
			<path id="XMLID_1519_" class="st2" d="M326.1,212.4c0.1,0,0.1,0.1,0.2,0.1c0,0,0,0,0,0C326.2,212.5,326.1,212.4,326.1,212.4z"/>
			<path id="XMLID_1518_" class="st2" d="M390.8,217c-0.4,0.1-0.9,0.3-1.3,0.4C389.9,217.2,390.3,217.1,390.8,217z"/>
			<path id="XMLID_1517_" class="st2" d="M387.6,217.9c-0.5,0.1-1,0.3-1.5,0.4C386.6,218.2,387.1,218,387.6,217.9z"/>
			<path id="XMLID_1516_" class="st2" d="M366,221.4c-0.1,0-0.3,0-0.4,0C365.7,221.4,365.8,221.4,366,221.4z"/>
			<path id="XMLID_1515_" class="st2" d="M304.1,188.3c0.1,0.2,0.2,0.3,0.2,0.5c0-0.1,0-0.1-0.1-0.2
				C304.2,188.5,304.2,188.4,304.1,188.3z"/>
			<path id="XMLID_1514_" class="st2" d="M331.5,215.2c0,0-0.1,0-0.1-0.1C331.4,215.2,331.5,215.2,331.5,215.2z"/>
			<path id="XMLID_1513_" class="st2" d="M346,219.9c0.1,0,0.2,0,0.3,0.1c0,0,0,0,0,0C346.2,219.9,346.1,219.9,346,219.9z"/>
			<path id="XMLID_1512_" class="st2" d="M334.4,216.4c-0.1,0-0.2-0.1-0.2-0.1C334.3,216.4,334.4,216.4,334.4,216.4z"/>
			<path id="XMLID_1511_" class="st2" d="M343.3,219.3c-0.1,0-0.2,0-0.2-0.1C343.1,219.2,343.2,219.3,343.3,219.3z"/>
			<path id="XMLID_1510_" class="st2" d="M337.4,217.5c-0.1,0-0.3-0.1-0.4-0.1C337.1,217.4,337.2,217.5,337.4,217.5z"/>
			<path id="XMLID_1509_" class="st2" d="M305.3,190.8c0.1,0.2,0.2,0.4,0.3,0.6c-0.1-0.1-0.1-0.2-0.2-0.4
				C305.4,190.9,305.4,190.8,305.3,190.8z"/>
			<path id="XMLID_1508_" class="st103" d="M431.4,132.7c8.5,26.3-3.9,58.6-31,80.8c4.7-2,9.3-4.4,13.8-7.1
				c40.3-24.4,57.6-69.5,38.6-100.8c-3.6-5.9-8.2-10.9-13.7-15C441.4,104.1,438.5,118.8,431.4,132.7z"/>
			<path id="XMLID_1507_" class="st2" d="M316.7,205.5c-0.2-0.1-0.3-0.3-0.4-0.4C316.4,205.2,316.5,205.4,316.7,205.5z"/>
			<path id="XMLID_1506_" class="st2" d="M356,221.3c-0.1,0-0.2,0-0.3,0C355.7,221.3,355.8,221.3,356,221.3z"/>
			<path id="XMLID_1505_" class="st2" d="M310.3,198.6c0.1,0.1,0.2,0.3,0.3,0.4c-0.1-0.1-0.1-0.2-0.2-0.3
				C310.4,198.7,310.3,198.6,310.3,198.6z"/>
			<path id="XMLID_1504_" class="st2" d="M318.9,207.5c-0.1-0.1-0.2-0.1-0.2-0.2C318.8,207.3,318.9,207.4,318.9,207.5z"/>
			<path id="XMLID_1503_" class="st2" d="M314.7,203.6c-0.2-0.2-0.4-0.4-0.5-0.5C314.3,203.2,314.5,203.4,314.7,203.6z"/>
			<path id="XMLID_1502_" class="st2" d="M308.6,196.3c0.1,0.2,0.2,0.3,0.4,0.5c0-0.1-0.1-0.1-0.1-0.2
				C308.8,196.5,308.7,196.4,308.6,196.3z"/>
			<path id="XMLID_1501_" class="st2" d="M312.5,201.3c-0.1-0.1-0.1-0.1-0.2-0.2C312.4,201.1,312.4,201.2,312.5,201.3z"/>
			<path id="XMLID_1500_" class="st2" d="M382.9,219.1c0.4-0.1,0.8-0.2,1.2-0.3c0,0,0,0,0,0C383.7,218.9,383.3,219,382.9,219.1z"/>
			<path id="XMLID_1499_" class="st2" d="M320.6,114c-0.3,0.3-0.5,0.6-0.8,0.9C320,114.6,320.3,114.3,320.6,114
				C320.6,114,320.6,114,320.6,114z"/>
			<path id="XMLID_1498_" class="st2" d="M329.4,105.1c0.3-0.3,0.6-0.6,0.9-0.8C330.1,104.5,329.8,104.8,329.4,105.1z"/>
			<path id="XMLID_1497_" class="st2" d="M326.9,107.4c0.3-0.3,0.6-0.6,1-0.9C327.5,106.8,327.2,107.1,326.9,107.4z"/>
			<path id="XMLID_1496_" class="st2" d="M324.4,109.9c0.3-0.3,0.6-0.6,0.9-0.9C325,109.3,324.7,109.6,324.4,109.9z"/>
			<path id="XMLID_1495_" class="st2" d="M322,112.4c0.3-0.4,0.7-0.7,1-1.1C322.7,111.7,322.4,112,322,112.4z"/>
			<path id="XMLID_1494_" class="st2" d="M299.5,162.4c0,0,0-0.1,0-0.1C299.5,162.3,299.5,162.4,299.5,162.4z"/>
			<path id="XMLID_1493_" class="st2" d="M317.6,117.5c0-0.1,0.1-0.1,0.1-0.2C317.7,117.4,317.7,117.5,317.6,117.5z"/>
			<path id="XMLID_1492_" class="st2" d="M299.4,168.2c0,0.1,0,0.2,0,0.2C299.4,168.3,299.4,168.2,299.4,168.2
				C299.4,168.2,299.4,168.2,299.4,168.2z"/>
			<path id="XMLID_1491_" class="st2" d="M302.1,146.9c0,0.1-0.1,0.2-0.1,0.3C302.1,147.1,302.1,147,302.1,146.9
				C302.1,146.9,302.1,146.9,302.1,146.9z"/>
			<path id="XMLID_1490_" class="st2" d="M315.6,120.2c-0.1,0.1-0.1,0.2-0.2,0.3c0,0,0-0.1,0.1-0.1
				C315.5,120.3,315.6,120.3,315.6,120.2z"/>
			<path id="XMLID_1489_" class="st2" d="M300,156.5c0-0.1,0-0.3,0.1-0.4C300.1,156.2,300.1,156.3,300,156.5z"/>
			<path id="XMLID_1488_" class="st2" d="M301.3,150.2c0-0.1,0-0.2,0.1-0.2C301.3,150,301.3,150.1,301.3,150.2z"/>
			<path id="XMLID_1487_" class="st2" d="M304.2,140.8c0,0.1-0.1,0.2-0.1,0.2c0,0,0-0.1,0.1-0.1
				C304.2,140.8,304.2,140.8,304.2,140.8z"/>
			<path id="XMLID_1486_" class="st2" d="M299.7,159.4c0-0.1,0-0.2,0-0.3C299.7,159.2,299.7,159.3,299.7,159.4z"/>
			<path id="XMLID_1485_" class="st2" d="M305.3,138.1c0-0.1,0.1-0.2,0.1-0.3C305.4,137.9,305.3,138,305.3,138.1z"/>
			<path id="XMLID_1484_" class="st2" d="M315.1,120.9c0,0.1-0.1,0.1-0.1,0.2C315,121,315,121,315.1,120.9
				C315.1,120.9,315.1,120.9,315.1,120.9z"/>
			<path id="XMLID_1483_" class="st2" d="M308.1,132.1c0.1-0.1,0.1-0.3,0.2-0.4C308.3,131.8,308.2,132,308.1,132.1z"/>
			<path id="XMLID_1482_" class="st2" d="M309.7,129.2c0.1-0.1,0.1-0.2,0.2-0.3C309.8,129,309.8,129.1,309.7,129.2z"/>
			<path id="XMLID_1481_" class="st2" d="M299.6,171.3c0,0.1,0,0.2,0,0.4c0-0.1,0-0.1,0-0.2C299.7,171.4,299.7,171.3,299.6,171.3z"
				/>
			<path id="XMLID_1480_" class="st2" d="M313.7,122.9c-0.2,0.2-0.3,0.5-0.5,0.7c0,0,0.1-0.1,0.1-0.1
				C313.4,123.3,313.5,123.1,313.7,122.9z"/>
			<path id="XMLID_1479_" class="st2" d="M345.7,93c-4.5,2.7-8.8,5.7-12.7,9c36.9-15.7,76.6-8.2,93.4,19.6c2.1,3.5,3.8,7.2,5,11.1
				c7.1-13.8,10-28.5,7.8-42.1C416,73.2,378.3,73.3,345.7,93z"/>
			<path id="XMLID_1478_" class="st2" d="M300,174.1c0,0.2,0.1,0.3,0.1,0.5c0-0.1,0-0.2,0-0.3C300,174.2,300,174.2,300,174.1z"/>
			<path id="XMLID_1477_" class="st2" d="M299.4,165.1c0,0.1,0,0.3,0,0.4c0-0.1,0-0.1,0-0.2C299.4,165.2,299.4,165.2,299.4,165.1z"
				/>
			<path id="XMLID_1476_" class="st102" d="M375.3,220.5c-0.8,0.1-1.5,0.2-2.3,0.3C373.7,220.8,374.5,220.6,375.3,220.5z"/>
			<path id="XMLID_1475_" class="st102" d="M388.9,217.6c0.2-0.1,0.4-0.1,0.6-0.2C389.3,217.4,389.1,217.5,388.9,217.6
				C388.9,217.5,388.9,217.5,388.9,217.6z"/>
			<path id="XMLID_1474_" class="st102" d="M392.8,216.3c-0.7,0.2-1.3,0.4-2,0.7C391.4,216.8,392.1,216.5,392.8,216.3z"/>
			<path id="XMLID_1473_" class="st102" d="M323.6,210.9c0.1,0,0.1,0.1,0.2,0.1C323.7,210.9,323.7,210.9,323.6,210.9
				C323.6,210.9,323.6,210.9,323.6,210.9z"/>
			<path id="XMLID_1472_" class="st102" d="M321.3,209.3c0.1,0.1,0.3,0.2,0.5,0.3c-0.1-0.1-0.2-0.2-0.3-0.2
				C321.4,209.3,321.3,209.3,321.3,209.3z"/>
			<path id="XMLID_1470_" class="st102" d="M379.6,219.8c-1.1,0.2-2.2,0.4-3.3,0.6C377.4,220.2,378.5,220,379.6,219.8z"/>
			<path id="XMLID_1469_" class="st102" d="M301,179.3c-0.1-0.2-0.1-0.5-0.2-0.7C300.9,178.8,301,179,301,179.3z"/>
			<path id="XMLID_1468_" class="st102" d="M300.5,176.8c-0.1-0.3-0.1-0.5-0.2-0.8C300.4,176.3,300.4,176.6,300.5,176.8z"/>
			<path id="XMLID_1467_" class="st102" d="M338.7,218c-0.1,0-0.2-0.1-0.3-0.1C338.5,217.9,338.6,217.9,338.7,218z"/>
			<path id="XMLID_1466_" class="st102" d="M326,212.3c0,0,0.1,0.1,0.1,0.1C326.1,212.4,326.1,212.4,326,212.3
				C326,212.3,326,212.3,326,212.3z"/>
			<path id="XMLID_1465_" class="st102" d="M396.1,215.1c-0.7,0.3-1.4,0.5-2.1,0.8C394.7,215.7,395.4,215.4,396.1,215.1z"/>
			<path id="XMLID_1464_" class="st102" d="M385,218.6c0.4-0.1,0.8-0.2,1.2-0.3c-0.3,0.1-0.6,0.2-1,0.2
				C385.1,218.6,385,218.6,385,218.6z"/>
			<path id="XMLID_1463_" class="st102" d="M380.7,219.6c0.7-0.1,1.5-0.3,2.2-0.5c-0.7,0.2-1.4,0.3-2,0.4
				C380.8,219.6,380.7,219.6,380.7,219.6z"/>
			<path id="XMLID_1462_" class="st102" d="M308.4,196c0.1,0.1,0.1,0.2,0.2,0.3c0,0-0.1-0.1-0.1-0.1
				C308.5,196.1,308.4,196,308.4,196z"/>
			<path id="XMLID_1461_" class="st102" d="M309.9,198c0.1,0.2,0.3,0.4,0.4,0.6c0-0.1-0.1-0.1-0.1-0.2
				C310.1,198.3,310,198.1,309.9,198z"/>
			<path id="XMLID_1460_" class="st102" d="M379.8,219.8c0.1,0,0.2,0,0.2-0.1c0,0,0,0,0,0C380,219.7,379.9,219.8,379.8,219.8z"/>
			<path id="XMLID_1459_" class="st102" d="M400.5,213.4c-1.1,0.4-2.1,0.9-3.2,1.3C398.3,214.3,399.4,213.9,400.5,213.4z"/>
			<path id="XMLID_1458_" class="st102" d="M387.6,217.9c0.4-0.1,0.9-0.2,1.3-0.4c-0.3,0.1-0.5,0.1-0.8,0.2
				C388,217.8,387.8,217.9,387.6,217.9z"/>
			<path id="XMLID_1457_" class="st102" d="M304.4,188.8c0.1,0.2,0.2,0.4,0.3,0.7c-0.1-0.2-0.2-0.3-0.2-0.5
				C304.4,188.9,304.4,188.8,304.4,188.8z"/>
			<path id="XMLID_1456_" class="st102" d="M331.1,215c-0.2-0.1-0.4-0.2-0.7-0.3C330.7,214.8,330.9,214.9,331.1,215z"/>
			<path id="XMLID_1455_" class="st102" d="M346.4,220c0.1,0,0.3,0.1,0.4,0.1C346.6,220,346.5,220,346.4,220
				C346.4,220,346.4,220,346.4,220z"/>
			<path id="XMLID_1454_" class="st102" d="M313.6,202.5c-0.2-0.2-0.3-0.3-0.4-0.5C313.3,202.2,313.5,202.4,313.6,202.5z"/>
			<path id="XMLID_1453_" class="st102" d="M303.6,187.1c-0.1-0.3-0.2-0.5-0.3-0.8C303.4,186.6,303.5,186.8,303.6,187.1z"/>
			<path id="XMLID_1452_" class="st102" d="M312,200.7c-0.2-0.2-0.4-0.4-0.6-0.7C311.6,200.2,311.8,200.4,312,200.7z"/>
			<path id="XMLID_1451_" class="st102" d="M358.4,221.4c-0.2,0-0.4,0-0.6,0C358,221.4,358.2,221.4,358.4,221.4z"/>
			<path id="XMLID_1450_" class="st102" d="M333.5,216c-0.2-0.1-0.4-0.2-0.5-0.2C333.1,215.9,333.3,216,333.5,216z"/>
			<path id="XMLID_1449_" class="st102" d="M319.7,208.1c-0.2-0.2-0.4-0.3-0.7-0.5C319.3,207.7,319.5,207.9,319.7,208.1z"/>
			<path id="XMLID_1448_" class="st102" d="M315.6,204.5c-0.1-0.1-0.2-0.1-0.2-0.2C315.4,204.4,315.5,204.4,315.6,204.5z"/>
			<path id="XMLID_1447_" class="st102" d="M352.2,220.9c0.1,0,0.2,0,0.3,0c0,0,0,0-0.1,0C352.4,220.9,352.3,220.9,352.2,220.9z"/>
			<path id="XMLID_1446_" class="st102" d="M355.6,221.2c-0.2,0-0.4,0-0.6-0.1C355.2,221.2,355.4,221.2,355.6,221.2z"/>
			<path id="XMLID_1445_" class="st102" d="M305.6,191.3c0.1,0.1,0.1,0.2,0.2,0.3c0-0.1-0.1-0.1-0.1-0.2
				C305.7,191.4,305.7,191.4,305.6,191.3z"/>
			<path id="XMLID_1444_" class="st102" d="M367.7,221.3c-0.2,0-0.4,0-0.6,0C367.2,221.4,367.4,221.3,367.7,221.3z"/>
			<path id="XMLID_1442_" class="st102" d="M341.5,218.8c-0.2-0.1-0.4-0.1-0.6-0.2C341.1,218.7,341.3,218.7,341.5,218.8z"/>
			<path id="XMLID_1441_" class="st102" d="M302.7,184.6c-0.1-0.2-0.2-0.4-0.2-0.6C302.5,184.2,302.6,184.4,302.7,184.6z"/>
			<path id="XMLID_1440_" class="st102" d="M301.7,181.6c0-0.1-0.1-0.2-0.1-0.3C301.6,181.4,301.6,181.5,301.7,181.6z"/>
			<path id="XMLID_1439_" class="st102" d="M370.7,221.1c-0.3,0-0.5,0-0.8,0.1C370.2,221.1,370.4,221.1,370.7,221.1z"/>
			<path id="XMLID_1438_" class="st102" d="M328.2,213.5c0.1,0.1,0.3,0.2,0.4,0.2c0,0-0.1,0-0.1-0.1
				C328.4,213.7,328.3,213.6,328.2,213.5z"/>
			<path id="XMLID_1437_" class="st102" d="M361.2,221.5c-0.1,0-0.2,0-0.3,0C361.1,221.5,361.2,221.5,361.2,221.5z"/>
			<path id="XMLID_1436_" class="st102" d="M344.1,219.5c-0.2,0-0.4-0.1-0.6-0.2C343.7,219.4,343.9,219.4,344.1,219.5z"/>
			<path id="XMLID_1435_" class="st102" d="M317.8,206.5c-0.2-0.2-0.4-0.3-0.6-0.5C317.4,206.1,317.6,206.3,317.8,206.5z"/>
			<path id="XMLID_1434_" class="st102" d="M326,212.4C326.1,212.4,326.1,212.4,326,212.4c0.1,0.1,0.2,0.1,0.2,0.1
				C326.2,212.5,326.1,212.4,326,212.4z"/>
			<path id="XMLID_1433_" class="st102" d="M346.4,220C346.4,220,346.4,220,346.4,220C346.4,220,346.4,220,346.4,220
				C346.4,220,346.4,220,346.4,220z"/>
			<path id="XMLID_1432_" class="st102" d="M376.1,220.4c0.1,0,0.1,0,0.2,0c1.1-0.2,2.2-0.4,3.3-0.6c0.1,0,0.2,0,0.2,0
				c0.1,0,0.2,0,0.2,0C378.7,220,377.4,220.2,376.1,220.4z"/>
			<path id="XMLID_1431_" class="st102" d="M305.4,191c0.1,0.1,0.1,0.3,0.2,0.4c0,0,0.1,0.1,0.1,0.1
				C305.6,191.3,305.5,191.1,305.4,191z"/>
			<path id="XMLID_1430_" class="st102" d="M308.5,196.1c0,0,0.1,0.1,0.1,0.1c0.1,0.1,0.2,0.2,0.2,0.3
				C308.8,196.4,308.6,196.3,308.5,196.1z"/>
			<path id="XMLID_1429_" class="st102" d="M310.2,198.4c0,0.1,0.1,0.1,0.1,0.2c0,0,0.1,0.1,0.1,0.1
				C310.3,198.6,310.3,198.5,310.2,198.4z"/>
			<path id="XMLID_1428_" class="st102" d="M380.8,219.6c0.7-0.1,1.4-0.3,2-0.4c0.4-0.1,0.8-0.2,1.2-0.3
				C383,219.1,381.9,219.3,380.8,219.6z"/>
			<path id="XMLID_1427_" class="st101" d="M431.4,132.7c-4.4,8.6-10.5,16.9-18.1,24.3c1.8,20.4-7.1,42.7-24.3,60.5
				c0.2-0.1,0.4-0.1,0.6-0.2c0.4-0.1,0.9-0.3,1.3-0.4c0.7-0.2,1.3-0.4,2-0.7c0.4-0.1,0.8-0.3,1.3-0.4c0.7-0.2,1.4-0.5,2.1-0.8
				c0.4-0.1,0.8-0.3,1.2-0.4c1.1-0.4,2.1-0.8,3.2-1.3C427.5,191.2,439.9,159,431.4,132.7z"/>
			<path id="XMLID_1426_" class="st102" d="M328.5,213.7c0,0,0.1,0,0.1,0.1c0.1,0,0.1,0.1,0.2,0.1
				C328.7,213.8,328.6,213.8,328.5,213.7z"/>
			<path id="XMLID_1425_" class="st102" d="M321.1,209.1c0.1,0,0.1,0.1,0.2,0.1c0,0,0.1,0.1,0.1,0.1
				C321.3,209.3,321.2,209.2,321.1,209.1z"/>
			<path id="XMLID_1424_" class="st102" d="M323.5,210.8c0.1,0,0.1,0.1,0.2,0.1c0,0,0,0,0,0C323.6,210.8,323.5,210.8,323.5,210.8z"
				/>
			<path id="XMLID_1423_" class="st102" d="M352.5,220.9C352.5,220.9,352.5,220.9,352.5,220.9c0.1,0,0.1,0,0.2,0
				C352.6,220.9,352.5,220.9,352.5,220.9z"/>
			<path id="XMLID_1422_" class="st102" d="M385.2,218.6c0.3-0.1,0.6-0.2,1-0.2c0.5-0.1,1-0.3,1.5-0.4c0.2-0.1,0.4-0.1,0.5-0.2
				C387.2,218,386.2,218.3,385.2,218.6z"/>
			<path id="XMLID_1421_" class="st102" d="M372.3,220.9c0.2,0,0.5,0,0.7-0.1c0.8-0.1,1.5-0.2,2.3-0.3c0,0,0.1,0,0.1,0
				C374.3,220.7,373.3,220.8,372.3,220.9z"/>
			<path id="XMLID_1420_" class="st102" d="M304.3,188.6c0,0.1,0,0.1,0.1,0.2c0,0.1,0.1,0.1,0.1,0.2
				C304.4,188.8,304.3,188.7,304.3,188.6z"/>
			<path id="XMLID_1419_" class="st102" d="M299.9,173.5c0,0.2,0.1,0.4,0.1,0.5c0,0,0-0.1,0-0.1C300,173.8,299.9,173.7,299.9,173.5z
				"/>
			<path id="XMLID_1418_" class="st102" d="M317.9,117.2c-0.1,0.1-0.1,0.1-0.2,0.2C317.8,117.3,317.9,117.2,317.9,117.2
				C317.9,117.2,317.9,117.2,317.9,117.2z"/>
			<path id="XMLID_1417_" class="st102" d="M302.2,146.5c0,0.1-0.1,0.2-0.1,0.4c0,0,0,0,0,0C302.2,146.8,302.2,146.7,302.2,146.5z"
				/>
			<path id="XMLID_1416_" class="st102" d="M304.1,141c0,0.1-0.1,0.2-0.1,0.3C304,141.2,304.1,141.1,304.1,141
				C304.1,141,304.1,141,304.1,141z"/>
			<path id="XMLID_1415_" class="st102" d="M324,110.3c-0.3,0.3-0.6,0.7-0.9,1c0.1-0.1,0.3-0.3,0.4-0.4
				C323.6,110.7,323.8,110.5,324,110.3z"/>
			<path id="XMLID_1414_" class="st102" d="M319.8,115c-0.5,0.6-1,1.1-1.4,1.7c0,0,0.1-0.1,0.1-0.1C318.9,116,319.3,115.5,319.8,115
				z"/>
			<path id="XMLID_1413_" class="st102" d="M324.4,109.9c-0.1,0.1-0.3,0.3-0.4,0.4c0,0,0,0,0,0C324.1,110.2,324.3,110,324.4,109.9z"
				/>
			<path id="XMLID_1412_" class="st102" d="M322,112.4c-0.3,0.3-0.5,0.6-0.8,0.9c0.1-0.1,0.1-0.1,0.2-0.2
				C321.6,112.9,321.8,112.6,322,112.4z"/>
			<path id="XMLID_1411_" class="st102" d="M330.4,104.2c0.9-0.7,1.7-1.5,2.6-2.2C332.1,102.7,331.2,103.5,330.4,104.2z"/>
			<path id="XMLID_1410_" class="st102" d="M301.4,149.7c0.1-0.2,0.1-0.4,0.2-0.6C301.5,149.3,301.4,149.5,301.4,149.7z"/>
			<path id="XMLID_1409_" class="st102" d="M305,138.7c0.1-0.2,0.2-0.4,0.3-0.6C305.2,138.3,305.1,138.5,305,138.7z"/>
			<path id="XMLID_1408_" class="st102" d="M300.8,152.4c0-0.2,0.1-0.4,0.1-0.6C300.9,151.9,300.8,152.2,300.8,152.4z"/>
			<path id="XMLID_1407_" class="st102" d="M306.2,136.1c0.1-0.2,0.2-0.4,0.3-0.6C306.3,135.7,306.3,135.9,306.2,136.1z"/>
			<path id="XMLID_1406_" class="st102" d="M307.5,133.3c0-0.1,0.1-0.2,0.1-0.2C307.6,133.1,307.6,133.2,307.5,133.3z"/>
			<path id="XMLID_1405_" class="st102" d="M299.4,163.4c0-0.2,0-0.5,0-0.7C299.4,163,299.4,163.2,299.4,163.4z"/>
			<path id="XMLID_1404_" class="st102" d="M299.4,168.4c0,0,0,0.1,0,0.1C299.4,168.5,299.4,168.5,299.4,168.4
				C299.4,168.4,299.4,168.4,299.4,168.4z"/>
			<path id="XMLID_1403_" class="st102" d="M327.8,106.5c0.5-0.5,1.1-1,1.6-1.5C328.9,105.5,328.4,106,327.8,106.5z"/>
			<path id="XMLID_1402_" class="st102" d="M299.6,160.8c0-0.2,0-0.4,0-0.6C299.6,160.4,299.6,160.6,299.6,160.8z"/>
			<path id="XMLID_1401_" class="st102" d="M300.3,154.9c0-0.1,0-0.2,0.1-0.4C300.3,154.7,300.3,154.8,300.3,154.9z"/>
			<path id="XMLID_1400_" class="st102" d="M299.4,165.5c0,0.2,0,0.3,0,0.5c0-0.1,0-0.3,0-0.4C299.4,165.6,299.4,165.6,299.4,165.5z
				"/>
			<path id="XMLID_1399_" class="st102" d="M315.6,120.2c0.7-0.9,1.3-1.8,2-2.7C316.9,118.4,316.3,119.3,315.6,120.2z"/>
			<path id="XMLID_1398_" class="st102" d="M325.3,108.9c0.5-0.5,1-1,1.5-1.5C326.3,107.9,325.8,108.4,325.3,108.9z"/>
			<path id="XMLID_1397_" class="st102" d="M313.7,122.9c0.4-0.6,0.9-1.3,1.3-1.9C314.5,121.7,314.1,122.3,313.7,122.9z"/>
			<path id="XMLID_1396_" class="st102" d="M299.6,171.1c0,0.1,0,0.1,0,0.2c0,0,0,0,0,0C299.6,171.2,299.6,171.1,299.6,171.1z"/>
			<path id="XMLID_1395_" class="st102" d="M310.4,127.9c0.1-0.2,0.2-0.4,0.3-0.5C310.7,127.6,310.6,127.8,310.4,127.9z"/>
			<path id="XMLID_1394_" class="st102" d="M312,125.5c0.1-0.2,0.3-0.4,0.4-0.7C312.2,125,312.1,125.3,312,125.5z"/>
			<path id="XMLID_1393_" class="st102" d="M320.6,114c-0.3,0.3-0.5,0.6-0.8,0.9c-0.5,0.5-0.9,1.1-1.3,1.6
				C319.1,115.7,319.8,114.9,320.6,114z"/>
			<path id="XMLID_1392_" class="st102" d="M299.4,168.2c0,0.1,0,0.1,0,0.2c0,0,0,0,0,0C299.4,168.3,299.4,168.3,299.4,168.2z"/>
			<path id="XMLID_1391_" class="st102" d="M317.9,117.2c0,0.1-0.1,0.1-0.1,0.2c0,0.1-0.1,0.1-0.1,0.2c-0.7,0.9-1.4,1.8-2,2.7
				c0,0.1-0.1,0.1-0.1,0.2C316.3,119.3,317.1,118.2,317.9,117.2z"/>
			<path id="XMLID_1390_" class="st102" d="M304.2,140.9c0,0,0,0.1-0.1,0.1c0,0,0,0,0,0C304.1,141,304.1,140.9,304.2,140.9z"/>
			<path id="XMLID_1389_" class="st102" d="M315.1,121C315,121,315,121,315.1,121c-0.5,0.7-1,1.3-1.4,2c-0.1,0.2-0.3,0.4-0.4,0.6
				C313.9,122.6,314.4,121.8,315.1,121z"/>
			<path id="XMLID_1388_" class="st102" d="M299.6,171.2C299.6,171.3,299.6,171.3,299.6,171.2c0,0.1,0,0.2,0,0.2
				C299.7,171.4,299.7,171.3,299.6,171.2z"/>
			<path id="XMLID_1387_" class="st102" d="M300,174c0,0,0,0.1,0,0.1c0,0.1,0,0.1,0,0.2C300,174.2,300,174.1,300,174z"/>
			<path id="XMLID_1386_" class="st102" d="M302.1,146.9C302.1,146.9,302.1,146.9,302.1,146.9C302.1,146.9,302.1,146.9,302.1,146.9
				C302.1,146.9,302.1,146.9,302.1,146.9z"/>
			<path id="XMLID_1385_" class="st102" d="M405.8,134c4.3,7.1,6.7,14.9,7.4,23c7.6-7.4,13.7-15.7,18.1-24.3
				c-1.2-3.8-2.9-7.5-5-11.1C409.6,93.8,369.9,86.3,333,102c-0.9,0.7-1.7,1.5-2.6,2.2c-0.3,0.3-0.6,0.6-0.9,0.8
				c-0.5,0.5-1.1,1-1.6,1.5c-0.3,0.3-0.6,0.6-1,0.9c-0.5,0.5-1,1-1.5,1.5c-0.3,0.3-0.6,0.6-0.9,0.9c-0.1,0.1-0.3,0.3-0.4,0.4
				C357.3,100.5,390.8,109.1,405.8,134z"/>
			<path id="XMLID_1384_" class="st102" d="M323.4,110.9c-0.1,0.1-0.3,0.3-0.4,0.4c-0.3,0.4-0.7,0.7-1,1.1c-0.2,0.2-0.4,0.5-0.7,0.7
				C322,112.4,322.7,111.6,323.4,110.9z"/>
			<path id="XMLID_1383_" class="st102" d="M299.4,165.3c0,0.1,0,0.1,0,0.2c0,0,0,0.1,0,0.1C299.4,165.5,299.4,165.4,299.4,165.3z"
				/>
			<path id="XMLID_1382_" class="st2" d="M376,220.4c-0.2,0-0.3,0-0.5,0.1C375.6,220.5,375.8,220.5,376,220.4z"/>
			<path id="XMLID_1381_" class="st2" d="M384.1,218.8c0.3-0.1,0.6-0.1,0.9-0.2C384.7,218.7,384.4,218.8,384.1,218.8
				C384.1,218.8,384.1,218.8,384.1,218.8z"/>
			<path id="XMLID_1380_" class="st2" d="M371.6,221C371.6,221,371.6,221,371.6,221c0.2,0,0.3,0,0.5-0.1c-0.1,0-0.2,0-0.3,0
				C371.7,221,371.7,221,371.6,221z"/>
			<path id="XMLID_1379_" class="st2" d="M380.7,219.6c-0.2,0-0.4,0.1-0.6,0.1C380.2,219.7,380.5,219.6,380.7,219.6z"/>
			<path id="XMLID_1378_" class="st2" d="M375.4,220.5C375.4,220.5,375.4,220.5,375.4,220.5c0.3,0,0.4-0.1,0.6-0.1c0,0,0.1,0,0.1,0
				C375.8,220.5,375.6,220.5,375.4,220.5z"/>
			<path id="XMLID_1377_" class="st2" d="M384,218.8C384.1,218.8,384.1,218.8,384,218.8C384.1,218.8,384.1,218.8,384,218.8
				C384.1,218.8,384.1,218.8,384,218.8z"/>
			<path id="XMLID_1376_" class="st2" d="M371.8,221c0.1,0,0.2,0,0.3,0c0,0,0.1,0,0.1,0C372.1,220.9,372,221,371.8,221z"/>
			<path id="XMLID_1375_" class="st2" d="M313,123.9c0.1-0.1,0.1-0.2,0.2-0.3c-0.1,0.1-0.2,0.3-0.3,0.4c0,0,0,0,0,0
				C312.9,124,313,124,313,123.9z"/>
			<path id="XMLID_1374_" class="st2" d="M317.9,117.2c0.1-0.2,0.3-0.3,0.4-0.5C318.2,116.8,318.1,117,317.9,117.2z"/>
			<path id="XMLID_1373_" class="st2" d="M321.2,113.3c-0.2,0.2-0.4,0.5-0.6,0.7c0,0,0,0,0,0C320.8,113.8,321,113.5,321.2,113.3z"/>
			<path id="XMLID_1372_" class="st2" d="M315.1,120.9c0.1-0.1,0.2-0.3,0.3-0.4C315.3,120.6,315.2,120.7,315.1,120.9z"/>
			<path id="XMLID_1371_" class="st2" d="M320.6,114C320.6,114,320.6,114,320.6,114C320.6,114,320.6,114,320.6,114
				C320.6,114,320.6,114,320.6,114z"/>
			<path id="XMLID_1370_" class="st2" d="M313.3,123.5c0,0-0.1,0.1-0.1,0.1c-0.1,0.1-0.1,0.2-0.2,0.3
				C313.1,123.8,313.2,123.6,313.3,123.5z"/>
			<path id="XMLID_1369_" class="st2" d="M315.5,120.4C315.5,120.4,315.4,120.4,315.5,120.4c-0.2,0.2-0.3,0.4-0.4,0.5
				c0,0,0,0.1-0.1,0.1C315.2,120.8,315.3,120.6,315.5,120.4z"/>
			<path id="XMLID_1368_" class="st2" d="M380,219.7C380,219.7,380,219.7,380,219.7c0.2,0,0.4-0.1,0.6-0.1c0,0,0.1,0,0.1,0
				C380.6,219.6,380.3,219.7,380,219.7z"/>
			<path id="XMLID_1367_" class="st2" d="M384.1,218.8c0.3-0.1,0.6-0.1,0.9-0.2c0.1,0,0.2,0,0.2-0.1
				C384.8,218.6,384.5,218.7,384.1,218.8z"/>
			<path id="XMLID_1366_" class="st2" d="M388.2,217.8c0.3-0.1,0.5-0.1,0.8-0.2c0,0,0,0,0,0C388.7,217.6,388.4,217.7,388.2,217.8z"
				/>
			<path id="XMLID_1365_" class="st2" d="M371.6,221c0.1,0,0.1,0,0.2,0C371.7,221,371.7,221,371.6,221
				C371.6,221,371.6,221,371.6,221z"/>
			<path id="XMLID_1364_" class="st103" d="M385,176.9c0.6,14.6-4.1,30.1-13.4,44.1c0.1,0,0.1,0,0.2,0c0.2,0,0.3,0,0.5-0.1
				c1-0.1,2.1-0.2,3.1-0.4c0.2,0,0.5-0.1,0.7-0.1c1.3-0.2,2.6-0.4,3.9-0.7c0.3-0.1,0.5-0.1,0.8-0.2c1.1-0.2,2.2-0.5,3.2-0.7
				c0,0,0,0,0.1,0c0.4-0.1,0.7-0.2,1.1-0.3c1-0.2,2-0.5,3-0.8c0.3-0.1,0.5-0.1,0.8-0.2c17.3-17.9,26.2-40.2,24.3-60.5
				c-5.7,5.6-12.3,10.8-19.7,15.2C390.8,173.9,387.9,175.5,385,176.9z"/>
			<path id="XMLID_1363_" class="st2" d="M318.4,116.6c0,0-0.1,0.1-0.1,0.1c-0.1,0.2-0.3,0.3-0.4,0.5c0,0,0,0,0,0
				C318.1,117,318.3,116.8,318.4,116.6z"/>
			<path id="XMLID_1362_" class="st2" d="M324,110.3C324,110.3,324,110.3,324,110.3c-0.2,0.2-0.4,0.4-0.6,0.6
				C323.6,110.7,323.8,110.5,324,110.3z"/>
			<path id="XMLID_1361_" class="st2" d="M321.4,113.1c-0.1,0.1-0.1,0.1-0.2,0.2c-0.2,0.2-0.4,0.4-0.6,0.7
				C320.9,113.7,321.1,113.4,321.4,113.1z"/>
			<path id="XMLID_1360_" class="st2" d="M312.9,124.1C312.9,124.1,312.9,124.1,312.9,124.1c0-0.1,0.1-0.1,0.1-0.2
				C313,124,312.9,124,312.9,124.1z"/>
			<path id="XMLID_1359_" class="st2" d="M324,110.3c-0.2,0.2-0.4,0.4-0.6,0.6c-0.7,0.7-1.4,1.5-2.1,2.3c-0.2,0.3-0.5,0.6-0.7,0.8
				c0,0,0,0,0,0.1c-0.7,0.8-1.4,1.7-2.1,2.5c-0.2,0.2-0.3,0.4-0.5,0.6c-0.8,1-1.7,2.1-2.4,3.2c-0.1,0.2-0.3,0.4-0.4,0.6
				c-0.6,0.8-1.2,1.7-1.8,2.6c-0.1,0.1-0.2,0.3-0.3,0.4c0,0.1-0.1,0.1-0.1,0.2c27.1-2.8,52.1,6.6,64.5,27.2
				c4.8,7.9,7.2,16.6,7.6,25.7c2.9-1.4,5.8-3,8.6-4.7c7.4-4.5,13.9-9.6,19.7-15.2c-0.7-8.1-3.2-15.9-7.4-23
				C390.8,109.1,357.3,100.5,324,110.3z"/>
			<path id="XMLID_1358_" class="st102" d="M301.7,181.6c0.1,0.3,0.2,0.6,0.3,0.9c0-0.1,0-0.1-0.1-0.2
				C301.8,182.1,301.7,181.9,301.7,181.6z"/>
			<path id="XMLID_1357_" class="st102" d="M302.2,183.3c0.1,0.2,0.2,0.5,0.2,0.7c-0.1-0.2-0.1-0.3-0.2-0.5
				C302.2,183.4,302.2,183.3,302.2,183.3z"/>
			<path id="XMLID_1356_" class="st102" d="M331.1,215c0.1,0,0.2,0.1,0.3,0.1C331.3,215.1,331.3,215.1,331.1,215
				C331.2,215,331.1,215,331.1,215z"/>
			<path id="XMLID_1355_" class="st102" d="M301,179.3c0.1,0.2,0.1,0.5,0.2,0.7c0-0.1,0-0.2-0.1-0.3
				C301.1,179.5,301,179.4,301,179.3z"/>
			<path id="XMLID_1353_" class="st102" d="M301.3,180.5c0.1,0.3,0.1,0.5,0.2,0.8c-0.1-0.2-0.1-0.4-0.2-0.6
				C301.4,180.7,301.4,180.6,301.3,180.5z"/>
			<path id="XMLID_1352_" class="st102" d="M303.1,185.8c0.1,0.2,0.1,0.3,0.2,0.5c0-0.1,0-0.1-0.1-0.2
				C303.2,186,303.1,185.9,303.1,185.8z"/>
			<path id="XMLID_1351_" class="st102" d="M302.7,184.6c0.1,0.3,0.2,0.6,0.4,1c-0.1-0.2-0.1-0.3-0.2-0.5
				C302.8,184.9,302.7,184.8,302.7,184.6z"/>
			<path id="XMLID_1350_" class="st102" d="M308.4,196c-0.5-0.7-0.9-1.4-1.4-2.1C307.5,194.6,307.9,195.3,308.4,196z"/>
			<path id="XMLID_1349_" class="st102" d="M331.5,215.2c0.5,0.2,0.9,0.4,1.4,0.6c-0.3-0.1-0.5-0.2-0.8-0.4
				C331.9,215.4,331.7,215.3,331.5,215.2z"/>
			<path id="XMLID_1348_" class="st102" d="M339.5,218.2c-0.3-0.1-0.5-0.2-0.8-0.2c0.7,0.2,1.4,0.4,2.2,0.7c-0.1,0-0.3-0.1-0.4-0.1
				C340.2,218.4,339.8,218.3,339.5,218.2z"/>
			<path id="XMLID_1347_" class="st102" d="M326,212.3c-0.7-0.4-1.5-0.9-2.2-1.3C324.5,211.4,325.2,211.9,326,212.3z"/>
			<path id="XMLID_1346_" class="st102" d="M300.6,177.3c0.1,0.4,0.2,0.8,0.3,1.2c0-0.2-0.1-0.4-0.1-0.6
				C300.7,177.7,300.6,177.5,300.6,177.3z"/>
			<path id="XMLID_1345_" class="st102" d="M333.5,216c0.2,0.1,0.5,0.2,0.8,0.3c-0.1,0-0.2-0.1-0.3-0.1
				C333.7,216.2,333.6,216.1,333.5,216z"/>
			<path id="XMLID_1344_" class="st102" d="M300.5,176.8c0,0.1,0,0.1,0,0.2C300.5,177,300.5,176.9,300.5,176.8
				C300.5,176.9,300.5,176.8,300.5,176.8z"/>
			<path id="XMLID_1343_" class="st102" d="M337.4,217.5c0.3,0.1,0.7,0.2,1,0.4c-0.2-0.1-0.5-0.2-0.7-0.2
				C337.6,217.6,337.5,217.6,337.4,217.5z"/>
			<path id="XMLID_1342_" class="st102" d="M300.1,174.8C300.1,174.8,300.1,174.8,300.1,174.8c0.1,0.4,0.1,0.8,0.2,1.3
				c-0.1-0.3-0.1-0.6-0.2-1C300.1,175,300.1,174.9,300.1,174.8z"/>
			<path id="XMLID_1341_" class="st102" d="M334.9,216.6c-0.1-0.1-0.3-0.1-0.4-0.2c0.8,0.3,1.6,0.6,2.5,0.9c-0.1,0-0.2-0.1-0.3-0.1
				C336.1,217.1,335.5,216.8,334.9,216.6z"/>
			<path id="XMLID_1340_" class="st102" d="M316.7,205.5c0.2,0.2,0.3,0.3,0.5,0.5c-0.1-0.1-0.2-0.2-0.3-0.3
				C316.8,205.6,316.7,205.6,316.7,205.5z"/>
			<path id="XMLID_1339_" class="st102" d="M310.6,199c0.3,0.3,0.5,0.7,0.8,1c-0.2-0.2-0.3-0.4-0.4-0.6
				C310.9,199.3,310.7,199.2,310.6,199z"/>
			<path id="XMLID_1338_" class="st102" d="M312,200.7c0.1,0.1,0.2,0.3,0.3,0.4c-0.1-0.1-0.2-0.2-0.2-0.3
				C312.1,200.8,312,200.7,312,200.7z"/>
			<path id="XMLID_1337_" class="st102" d="M309,196.8c0.3,0.4,0.6,0.8,0.9,1.2c-0.2-0.3-0.5-0.6-0.7-1
				C309.1,196.9,309,196.9,309,196.8z"/>
			<path id="XMLID_1336_" class="st102" d="M312.5,201.3c0.2,0.3,0.5,0.5,0.7,0.8c-0.1-0.1-0.2-0.2-0.3-0.4
				C312.7,201.5,312.6,201.4,312.5,201.3z"/>
			<path id="XMLID_1335_" class="st102" d="M314.7,203.6c0.2,0.2,0.4,0.5,0.7,0.7c-0.2-0.2-0.4-0.4-0.5-0.5
				C314.8,203.7,314.7,203.6,314.7,203.6z"/>
			<path id="XMLID_1334_" class="st102" d="M313.6,202.5c0.2,0.2,0.4,0.4,0.5,0.6c-0.1-0.1-0.1-0.1-0.2-0.2
				C313.9,202.8,313.8,202.6,313.6,202.5z"/>
			<path id="XMLID_1333_" class="st102" d="M317.8,206.5c0.3,0.3,0.6,0.5,1,0.8c-0.2-0.1-0.3-0.3-0.5-0.4
				C318.1,206.7,317.9,206.6,317.8,206.5z"/>
			<path id="XMLID_1332_" class="st102" d="M329,214c0.5,0.2,1,0.5,1.5,0.7c-0.4-0.2-0.7-0.4-1.1-0.5C329.2,214.1,329.1,214,329,214
				z"/>
			<path id="XMLID_1331_" class="st102" d="M307.1,193.8c-0.4-0.7-0.8-1.4-1.2-2.2C306.2,192.4,306.6,193.1,307.1,193.8z"/>
			<path id="XMLID_1330_" class="st102" d="M303.6,187.1c0.2,0.4,0.3,0.8,0.5,1.2c-0.1-0.2-0.1-0.3-0.2-0.5
				C303.8,187.5,303.7,187.3,303.6,187.1z"/>
			<path id="XMLID_1329_" class="st102" d="M326.3,212.5c0.6,0.4,1.2,0.7,1.9,1C327.5,213.2,326.9,212.9,326.3,212.5
				C326.3,212.5,326.3,212.5,326.3,212.5z"/>
			<path id="XMLID_1328_" class="st102" d="M321.7,209.6c0.5,0.4,1,0.7,1.6,1.1c-0.1,0-0.1-0.1-0.2-0.1
				C322.7,210.2,322.2,209.9,321.7,209.6z"/>
			<path id="XMLID_1327_" class="st102" d="M304.7,189.4c0.2,0.5,0.4,0.9,0.7,1.4c0-0.1-0.1-0.2-0.1-0.3
				C305,190.1,304.8,189.8,304.7,189.4z"/>
			<path id="XMLID_1326_" class="st102" d="M318.9,207.5c0,0,0.1,0.1,0.1,0.1c0,0,0,0,0,0C319,207.5,319,207.5,318.9,207.5z"/>
			<path id="XMLID_1325_" class="st102" d="M319.7,208.1c0.4,0.3,0.7,0.6,1.1,0.9c-0.1-0.1-0.2-0.2-0.4-0.3
				C320.3,208.5,320,208.3,319.7,208.1z"/>
			<polygon id="XMLID_1324_" class="st102" points="355.6,221.2 355.6,221.2 355.6,221.2 			"/>
			<path id="XMLID_1323_" class="st102" d="M352.2,220.9c-1.9-0.2-3.7-0.5-5.5-0.9C348.6,220.4,350.4,220.7,352.2,220.9z"/>
			<path id="XMLID_1322_" class="st102" d="M361.2,221.5c0.3,0,0.7,0,1.1,0c-0.1,0-0.2,0-0.3,0C361.7,221.5,361.5,221.5,361.2,221.5
				z"/>
			<path id="XMLID_1321_" class="st102" d="M343.3,219.3c0.1,0,0.1,0,0.2,0.1c0,0-0.1,0-0.1,0C343.4,219.3,343.3,219.3,343.3,219.3z
				"/>
			<path id="XMLID_1320_" class="st102" d="M366,221.4c0.4,0,0.7,0,1.1-0.1c-0.2,0-0.4,0-0.6,0C366.3,221.4,366.1,221.4,366,221.4z"
				/>
			<path id="XMLID_1319_" class="st102" d="M363.1,221.5c-0.1,0-0.3,0-0.4,0c0.9,0,1.9,0,2.9-0.1c-0.1,0-0.3,0-0.4,0
				C364.5,221.5,363.8,221.5,363.1,221.5z"/>
			<path id="XMLID_1318_" class="st102" d="M358.8,221.4c-0.1,0-0.2,0-0.3,0c0.8,0,1.7,0.1,2.5,0.1c-0.4,0-0.7,0-1.1,0
				C359.5,221.5,359.1,221.4,358.8,221.4z"/>
			<path id="XMLID_1317_" class="st102" d="M352.8,221c0.7,0.1,1.5,0.2,2.2,0.2c-0.7-0.1-1.3-0.1-2-0.2
				C352.9,221,352.8,221,352.8,221z"/>
			<path id="XMLID_1316_" class="st102" d="M315.6,204.5c0.2,0.2,0.4,0.4,0.6,0.6c-0.1-0.1-0.1-0.1-0.2-0.2
				C315.9,204.8,315.8,204.6,315.6,204.5z"/>
			<path id="XMLID_1315_" class="st102" d="M356,221.3c0.6,0,1.2,0.1,1.9,0.1c-0.4,0-0.8-0.1-1.3-0.1
				C356.4,221.3,356.2,221.3,356,221.3z"/>
			<path id="XMLID_1314_" class="st102" d="M344.1,219.5c0.6,0.1,1.3,0.3,1.9,0.4c-0.1,0-0.3-0.1-0.4-0.1
				C345.1,219.7,344.6,219.6,344.1,219.5z"/>
			<path id="XMLID_1313_" class="st102" d="M368.5,221.3c-0.3,0-0.5,0-0.8,0.1c0.8,0,1.5-0.1,2.3-0.2c-0.1,0-0.2,0-0.2,0
				C369.3,221.2,368.9,221.2,368.5,221.3z"/>
			<path id="XMLID_1312_" class="st102" d="M341.5,218.8c0.5,0.1,1,0.3,1.5,0.4c-0.2,0-0.4-0.1-0.6-0.2
				C342.2,219,341.8,218.9,341.5,218.8z"/>
			<path id="XMLID_1311_" class="st102" d="M370.7,221.1c0.3,0,0.6-0.1,0.9-0.1c0,0,0,0,0,0C371.3,221,371,221.1,370.7,221.1z"/>
			<path id="XMLID_1310_" class="st102" d="M369.7,221.2c-0.4,0-0.8,0.1-1.2,0.1C368.9,221.2,369.3,221.2,369.7,221.2z"/>
			<path id="XMLID_1309_" class="st102" d="M320.5,208.7c0.1,0.1,0.2,0.2,0.4,0.3c0.1,0.1,0.2,0.1,0.3,0.2
				C320.9,209,320.7,208.8,320.5,208.7z"/>
			<path id="XMLID_1308_" class="st102" d="M305.2,190.5c0,0.1,0.1,0.2,0.1,0.3c0,0.1,0.1,0.1,0.1,0.2
				C305.4,190.8,305.3,190.7,305.2,190.5z"/>
			<path id="XMLID_1307_" class="st102" d="M302.8,185.1c0.1,0.2,0.1,0.3,0.2,0.5c0,0.1,0.1,0.1,0.1,0.2c0,0.1,0.1,0.2,0.1,0.3
				C303.1,185.8,303,185.4,302.8,185.1z"/>
			<path id="XMLID_1306_" class="st102" d="M300.2,175.1c0-0.1,0-0.2,0-0.3c0,0,0,0,0,0C300.1,174.9,300.1,175,300.2,175.1z"/>
			<path id="XMLID_1305_" class="st102" d="M308.9,196.6c0,0.1,0.1,0.1,0.1,0.2c0.1,0.1,0.1,0.2,0.2,0.3
				C309.1,196.9,309,196.7,308.9,196.6z"/>
			<path id="XMLID_1304_" class="st102" d="M318.2,206.8c0.2,0.1,0.3,0.3,0.5,0.4c0.1,0.1,0.2,0.1,0.2,0.2c0,0,0.1,0.1,0.1,0.1
				C318.8,207.3,318.5,207.1,318.2,206.8z"/>
			<path id="XMLID_1303_" class="st102" d="M323.1,210.5c0.1,0,0.1,0.1,0.2,0.1c0.1,0,0.1,0.1,0.2,0.1
				C323.3,210.7,323.2,210.6,323.1,210.5z"/>
			<path id="XMLID_1302_" class="st102" d="M303.9,187.8c0.1,0.2,0.1,0.3,0.2,0.5c0.1,0.1,0.1,0.2,0.2,0.3
				C304.2,188.3,304,188,303.9,187.8z"/>
			<path id="XMLID_1301_" class="st102" d="M340.5,218.5c-0.3-0.1-0.7-0.2-1-0.3C339.8,218.3,340.2,218.4,340.5,218.5z"/>
			<path id="XMLID_1300_" class="st102" d="M326.3,212.5C326.3,212.5,326.3,212.5,326.3,212.5C326.3,212.5,326.3,212.5,326.3,212.5
				C326.3,212.5,326.3,212.5,326.3,212.5z"/>
			<path id="XMLID_1299_" class="st102" d="M365.2,221.4c0.1,0,0.3,0,0.4,0c0.1,0,0.3,0,0.4,0c0.1,0,0.3,0,0.4,0
				C366,221.4,365.6,221.4,365.2,221.4z"/>
			<path id="XMLID_1298_" class="st102" d="M328.8,213.9c0.1,0,0.1,0.1,0.2,0.1c0.1,0.1,0.2,0.1,0.4,0.2
				C329.2,214.1,329,214,328.8,213.9z"/>
			<path id="XMLID_1297_" class="st102" d="M359.9,221.5c-0.4,0-0.7,0-1.1,0C359.1,221.4,359.5,221.5,359.9,221.5z"/>
			<path id="XMLID_1296_" class="st102" d="M362,221.5c0.1,0,0.2,0,0.3,0c0.1,0,0.3,0,0.4,0c0.1,0,0.3,0,0.4,0
				C362.7,221.5,362.3,221.5,362,221.5z"/>
			<path id="XMLID_1295_" class="st102" d="M333.9,216.2c0.1,0,0.2,0.1,0.3,0.1c0.1,0,0.2,0.1,0.2,0.1c0.1,0.1,0.3,0.1,0.4,0.2
				C334.5,216.5,334.2,216.3,333.9,216.2z"/>
			<path id="XMLID_1294_" class="st102" d="M355.6,221.2C355.6,221.2,355.6,221.2,355.6,221.2c0.1,0,0.2,0,0.3,0c0.2,0,0.4,0,0.6,0
				C356.2,221.3,355.9,221.3,355.6,221.2z"/>
			<path id="XMLID_1292_" class="st102" d="M300.5,176.9c0,0,0,0.1,0,0.1c0,0.1,0,0.2,0.1,0.3c0,0.2,0.1,0.4,0.2,0.7
				C300.6,177.6,300.6,177.2,300.5,176.9z"/>
			<path id="XMLID_1291_" class="st102" d="M312.1,200.8c0.1,0.1,0.2,0.2,0.2,0.3c0.1,0.1,0.1,0.1,0.2,0.2c0.1,0.1,0.2,0.3,0.4,0.4
				C312.6,201.4,312.4,201.1,312.1,200.8z"/>
			<path id="XMLID_1290_" class="st102" d="M310.4,198.7c0.1,0.1,0.1,0.2,0.2,0.3c0.1,0.1,0.2,0.3,0.4,0.4
				C310.8,199.2,310.6,199,310.4,198.7z"/>
			<path id="XMLID_1289_" class="st102" d="M314,202.9c0.1,0.1,0.1,0.1,0.2,0.2c0.2,0.2,0.3,0.4,0.5,0.5c0,0,0.1,0.1,0.1,0.1
				C314.6,203.5,314.3,203.2,314,202.9z"/>
			<path id="XMLID_1288_" class="st102" d="M342.5,219.1c0.2,0.1,0.4,0.1,0.6,0.2c0.1,0,0.2,0,0.2,0.1c0,0,0.1,0,0.1,0
				C343.1,219.2,342.8,219.1,342.5,219.1z"/>
			<path id="XMLID_1287_" class="st102" d="M336.7,217.3c0.1,0,0.2,0.1,0.3,0.1c0.1,0,0.3,0.1,0.4,0.1c0.1,0,0.2,0.1,0.3,0.1
				C337.3,217.5,337,217.4,336.7,217.3z"/>
			<path id="XMLID_1286_" class="st102" d="M316,204.9c0.1,0.1,0.1,0.1,0.2,0.2c0.1,0.1,0.3,0.3,0.4,0.4c0.1,0.1,0.2,0.1,0.2,0.2
				C316.6,205.4,316.3,205.2,316,204.9z"/>
			<path id="XMLID_1284_" class="st102" d="M331.2,215.1c0.1,0,0.1,0.1,0.2,0.1c0,0,0.1,0,0.1,0.1c0.2,0.1,0.4,0.2,0.6,0.3
				C331.8,215.3,331.5,215.2,331.2,215.1z"/>
			<path id="XMLID_1283_" class="st102" d="M301.9,182.4c0,0.1,0,0.1,0.1,0.2c0.1,0.2,0.1,0.5,0.2,0.7c0,0.1,0.1,0.1,0.1,0.2
				C302.1,183.1,302,182.7,301.9,182.4z"/>
			<path id="XMLID_1282_" class="st102" d="M352.7,221c0,0,0.1,0,0.1,0c0.1,0,0.1,0,0.2,0C352.9,221,352.8,221,352.7,221z"/>
			<path id="XMLID_1281_" class="st102" d="M345.6,219.8c0.1,0,0.3,0.1,0.4,0.1c0.1,0,0.2,0,0.3,0.1
				C346.1,219.9,345.9,219.8,345.6,219.8z"/>
			<path id="XMLID_1280_" class="st102" d="M301.1,179.6c0,0.1,0,0.2,0.1,0.3c0.1,0.2,0.1,0.4,0.2,0.6c0,0.1,0,0.1,0.1,0.2
				C301.3,180.4,301.2,180,301.1,179.6z"/>
			<path id="XMLID_1279_" class="st102" d="M299.5,162.4c0,0.1,0,0.2,0,0.3c0,0,0-0.1,0-0.1C299.5,162.6,299.5,162.5,299.5,162.4z"
				/>
			<path id="XMLID_1278_" class="st102" d="M300.3,154.9c-0.1,0.4-0.1,0.7-0.2,1.1c0-0.1,0-0.2,0.1-0.3
				C300.2,155.4,300.2,155.2,300.3,154.9z"/>
			<path id="XMLID_1277_" class="st102" d="M299.7,159.4c0,0.3-0.1,0.5-0.1,0.8c0-0.2,0-0.3,0-0.5
				C299.7,159.6,299.7,159.5,299.7,159.4z"/>
			<path id="XMLID_1276_" class="st102" d="M299.6,160.8c0,0.5-0.1,1-0.1,1.5c0-0.2,0-0.5,0.1-0.7
				C299.5,161.3,299.5,161,299.6,160.8z"/>
			<path id="XMLID_1275_" class="st102" d="M300,156.8c0-0.1,0-0.2,0-0.3c-0.1,0.9-0.2,1.8-0.3,2.6c0-0.2,0-0.3,0.1-0.5
				C299.8,158,299.9,157.4,300,156.8z"/>
			<path id="XMLID_1273_" class="st102" d="M302.2,146.5c0.5-1.8,1.1-3.5,1.8-5.3C303.3,143,302.8,144.8,302.2,146.5z"/>
			<path id="XMLID_1272_" class="st102" d="M306.2,136.1c-0.3,0.6-0.5,1.1-0.8,1.7c0.1-0.2,0.2-0.4,0.2-0.5
				C305.8,136.9,306,136.5,306.2,136.1z"/>
			<path id="XMLID_1271_" class="st102" d="M311.8,125.7c0-0.1,0.1-0.1,0.1-0.2c-0.4,0.6-0.8,1.3-1.2,1.9c0.1-0.2,0.3-0.5,0.4-0.7
				C311.4,126.4,311.6,126,311.8,125.7z"/>
			<polygon id="XMLID_1270_" class="st102" points="305.3,138.1 305.3,138.1 305.3,138.1 			"/>
			<path id="XMLID_1269_" class="st102" d="M312.9,124.1c-0.2,0.3-0.3,0.5-0.5,0.8C312.6,124.6,312.7,124.3,312.9,124.1
				C312.9,124.1,312.9,124.1,312.9,124.1z"/>
			<path id="XMLID_1268_" class="st102" d="M299.7,171.7c0.1,0.6,0.1,1.3,0.2,1.9c-0.1-0.6-0.1-1.1-0.2-1.7
				C299.7,171.8,299.7,171.7,299.7,171.7z"/>
			<path id="XMLID_1267_" class="st102" d="M310.4,127.9c-0.2,0.3-0.4,0.6-0.5,0.9c0.1-0.1,0.2-0.3,0.2-0.4
				C310.2,128.3,310.3,128.1,310.4,127.9z"/>
			<path id="XMLID_1266_" class="st102" d="M308.1,132.1c-0.2,0.3-0.3,0.6-0.5,0.9c0.1-0.2,0.2-0.4,0.3-0.6
				C308,132.3,308.1,132.2,308.1,132.1z"/>
			<path id="XMLID_1265_" class="st102" d="M309.5,129.6c0.1-0.1,0.1-0.2,0.2-0.4c-0.5,0.8-0.9,1.7-1.4,2.5c0.1-0.1,0.1-0.2,0.2-0.4
				C308.9,130.7,309.2,130.1,309.5,129.6z"/>
			<path id="XMLID_1263_" class="st102" d="M307.1,134.2c0.2-0.3,0.3-0.7,0.5-1c-0.4,0.8-0.7,1.5-1.1,2.3c0-0.1,0.1-0.2,0.1-0.3
				C306.7,134.9,306.9,134.6,307.1,134.2z"/>
			<path id="XMLID_1262_" class="st102" d="M301.3,150.2c-0.1,0.5-0.2,1-0.4,1.6c0.1-0.3,0.1-0.6,0.2-1
				C301.2,150.6,301.2,150.4,301.3,150.2z"/>
			<path id="XMLID_1261_" class="st102" d="M302,147.2c-0.2,0.6-0.3,1.2-0.5,1.9c0.1-0.5,0.3-1,0.4-1.5
				C302,147.5,302,147.4,302,147.2z"/>
			<path id="XMLID_1260_" class="st102" d="M299.6,171.1c-0.1-0.8-0.1-1.7-0.2-2.5C299.5,169.4,299.5,170.2,299.6,171.1z"/>
			<path id="XMLID_1259_" class="st102" d="M301.4,149.7c0,0.1,0,0.1-0.1,0.2C301.3,149.9,301.3,149.9,301.4,149.7
				C301.4,149.8,301.4,149.8,301.4,149.7z"/>
			<path id="XMLID_1257_" class="st102" d="M300.7,152.8c0-0.1,0-0.3,0.1-0.4c-0.2,0.7-0.3,1.5-0.4,2.2c0-0.3,0.1-0.5,0.1-0.8
				C300.6,153.4,300.6,153.1,300.7,152.8z"/>
			<path id="XMLID_1256_" class="st102" d="M300.1,174.6c0,0,0,0.1,0,0.1c0,0,0,0,0,0C300.1,174.7,300.1,174.7,300.1,174.6z"/>
			<path id="XMLID_1255_" class="st102" d="M299.4,163.4c0,0.5,0,1.1,0,1.6c0-0.1,0-0.3,0-0.4C299.4,164.3,299.4,163.9,299.4,163.4z
				"/>
			<path id="XMLID_1254_" class="st102" d="M305,138.7c-0.3,0.7-0.6,1.4-0.8,2.1c0-0.1,0.1-0.1,0.1-0.2
				C304.5,139.9,304.8,139.3,305,138.7z"/>
			<path id="XMLID_1253_" class="st102" d="M299.4,166c0,0.7,0,1.4,0.1,2.1c0,0,0,0,0,0C299.4,167.4,299.4,166.7,299.4,166z"/>
			<path id="XMLID_1251_" class="st102" d="M302.1,146.9c0,0.1-0.1,0.2-0.1,0.3c0,0.1-0.1,0.3-0.1,0.4
				C302,147.4,302.1,147.2,302.1,146.9z"/>
			<path id="XMLID_1250_" class="st102" d="M308.5,131.3c-0.1,0.1-0.1,0.2-0.2,0.4c-0.1,0.1-0.1,0.3-0.2,0.4
				c-0.1,0.1-0.1,0.2-0.2,0.3C308.2,132,308.4,131.7,308.5,131.3z"/>
			<path id="XMLID_1249_" class="st102" d="M305.7,137.3c-0.1,0.2-0.2,0.4-0.2,0.5c0,0.1-0.1,0.2-0.1,0.3c0,0,0,0,0,0
				C305.4,137.8,305.5,137.5,305.7,137.3z"/>
			<path id="XMLID_1248_" class="st102" d="M310.1,128.5c-0.1,0.1-0.2,0.3-0.2,0.4c-0.1,0.1-0.1,0.2-0.2,0.3
				c-0.1,0.1-0.1,0.2-0.2,0.4C309.7,129.2,309.9,128.8,310.1,128.5z"/>
			<path id="XMLID_1247_" class="st102" d="M306.6,135.2c0.2-0.3,0.3-0.7,0.5-1C306.9,134.6,306.7,134.9,306.6,135.2z"/>
			<path id="XMLID_1246_" class="st102" d="M300.1,174.8c0-0.2-0.1-0.3-0.1-0.5c0,0.1,0,0.2,0,0.3
				C300.1,174.7,300.1,174.7,300.1,174.8C300.1,174.8,300.1,174.8,300.1,174.8z"/>
			<path id="XMLID_1245_" class="st102" d="M304.3,140.6c0,0.1-0.1,0.1-0.1,0.2c0,0,0,0.1,0,0.1
				C304.2,140.8,304.2,140.7,304.3,140.6z"/>
			<path id="XMLID_1244_" class="st102" d="M311.2,126.7c0.2-0.4,0.4-0.7,0.7-1.1C311.6,126,311.4,126.4,311.2,126.7z"/>
			<path id="XMLID_1243_" class="st102" d="M300.5,153.8c0.1-0.3,0.1-0.7,0.2-1C300.6,153.1,300.6,153.4,300.5,153.8z"/>
			<path id="XMLID_1242_" class="st102" d="M299.8,158.6c0,0.2,0,0.3-0.1,0.5c0,0.1,0,0.2,0,0.3c0,0.1,0,0.2,0,0.4
				C299.7,159.4,299.7,159,299.8,158.6z"/>
			<path id="XMLID_1241_" class="st102" d="M301.3,149.8c0,0,0,0.1,0,0.1c0,0.1,0,0.2-0.1,0.2c0,0.2-0.1,0.4-0.1,0.6
				C301.2,150.5,301.3,150.1,301.3,149.8z"/>
			<path id="XMLID_1240_" class="st102" d="M299.5,161.6c0,0.2,0,0.5-0.1,0.7c0,0,0,0.1,0,0.1c0,0.1,0,0.1,0,0.2
				C299.5,162.3,299.5,162,299.5,161.6z"/>
			<path id="XMLID_1239_" class="st102" d="M299.4,168.1C299.4,168.1,299.4,168.1,299.4,168.1C299.4,168.2,299.4,168.2,299.4,168.1
				C299.4,168.2,299.4,168.1,299.4,168.1z"/>
			<path id="XMLID_1238_" class="st102" d="M299.7,171.5c0,0.1,0,0.1,0,0.2c0,0.1,0,0.2,0,0.2C299.7,171.7,299.7,171.6,299.7,171.5z
				"/>
			<path id="XMLID_1237_" class="st102" d="M299.4,164.7c0,0.1,0,0.3,0,0.4c0,0.1,0,0.2,0,0.2C299.4,165.1,299.4,164.9,299.4,164.7z
				"/>
			<path id="XMLID_1236_" class="st102" d="M300.2,155.7c0,0.1,0,0.2-0.1,0.3c0,0.1,0,0.3-0.1,0.4c0,0.1,0,0.2,0,0.3
				C300.1,156.4,300.1,156.1,300.2,155.7z"/>
			<path id="XMLID_1235_" class="st102" d="M337.7,217.6c0.2,0.1,0.5,0.2,0.7,0.2c0.1,0,0.2,0.1,0.3,0.1c0.3,0.1,0.5,0.2,0.8,0.2
				C338.9,218,338.3,217.8,337.7,217.6z"/>
			<path id="XMLID_1234_" class="st102" d="M314.8,203.7c0.2,0.2,0.4,0.4,0.5,0.5c0.1,0.1,0.2,0.1,0.2,0.2c0.1,0.1,0.3,0.3,0.4,0.4
				C315.6,204.5,315.2,204.1,314.8,203.7z"/>
			<path id="XMLID_1233_" class="st102" d="M340.5,218.5c0.1,0,0.3,0.1,0.4,0.1c0.2,0.1,0.4,0.1,0.6,0.2c0.3,0.1,0.6,0.2,1,0.2
				C341.8,218.9,341.2,218.7,340.5,218.5z"/>
			<path id="XMLID_1232_" class="st102" d="M311,199.4c0.1,0.2,0.3,0.4,0.4,0.6c0.2,0.2,0.4,0.5,0.6,0.7c0,0,0.1,0.1,0.1,0.1
				C311.7,200.4,311.4,199.9,311,199.4z"/>
			<path id="XMLID_1231_" class="st102" d="M323.7,210.9c0,0,0.1,0.1,0.1,0.1c0.7,0.5,1.4,0.9,2.2,1.3c0,0,0.1,0,0.1,0.1
				C325.2,211.9,324.4,211.4,323.7,210.9z"/>
			<path id="XMLID_1230_" class="st102" d="M356.6,221.3c0.4,0,0.8,0.1,1.3,0.1c0.2,0,0.4,0,0.6,0c0.1,0,0.2,0,0.3,0
				C358,221.4,357.3,221.4,356.6,221.3z"/>
			<path id="XMLID_1229_" class="st102" d="M304.4,188.9c0.1,0.2,0.1,0.3,0.2,0.5c0.2,0.4,0.4,0.7,0.5,1.1
				C304.9,190,304.7,189.5,304.4,188.9z"/>
			<path id="XMLID_1228_" class="st102" d="M365.2,221.4c-0.7,0-1.4,0-2,0C363.8,221.5,364.5,221.5,365.2,221.4z"/>
			<path id="XMLID_1227_" class="st102" d="M359.9,221.5c0.4,0,0.7,0,1.1,0c0.1,0,0.2,0,0.3,0c0.2,0,0.5,0,0.7,0
				C361.3,221.5,360.6,221.5,359.9,221.5z"/>
			<path id="XMLID_1226_" class="st102" d="M309.2,197c0.2,0.3,0.5,0.7,0.7,1c0.1,0.1,0.2,0.3,0.3,0.4
				C309.8,198,309.5,197.5,309.2,197z"/>
			<path id="XMLID_1225_" class="st102" d="M319,207.5C319.1,207.5,319.1,207.6,319,207.5c0.3,0.2,0.5,0.4,0.7,0.6
				c0.3,0.2,0.5,0.4,0.8,0.6C320,208.3,319.5,207.9,319,207.5z"/>
			<path id="XMLID_1224_" class="st102" d="M307.1,193.8c0.4,0.7,0.9,1.4,1.4,2.1c0,0.1,0.1,0.1,0.1,0.2
				C308,195.4,307.5,194.6,307.1,193.8z"/>
			<path id="XMLID_1223_" class="st102" d="M353,221c0.7,0.1,1.3,0.1,2,0.2c0.2,0,0.4,0,0.6,0.1c0,0,0,0,0,0
				C354.7,221.2,353.9,221.1,353,221z"/>
			<path id="XMLID_1222_" class="st102" d="M305.8,191.7c0.4,0.7,0.8,1.5,1.2,2.2c-0.5-0.8-0.9-1.6-1.3-2.4
				C305.7,191.5,305.8,191.6,305.8,191.7z"/>
			<path id="XMLID_1221_" class="st102" d="M343.4,219.3C343.5,219.3,343.5,219.3,343.4,219.3c0.3,0.1,0.5,0.1,0.7,0.2
				c0.5,0.1,1,0.2,1.5,0.3C344.9,219.6,344.1,219.5,343.4,219.3z"/>
			<path id="XMLID_1220_" class="st102" d="M346.4,220c0.1,0,0.2,0.1,0.4,0.1c1.8,0.4,3.6,0.6,5.5,0.9c0.1,0,0.2,0,0.2,0
				C350.4,220.7,348.4,220.4,346.4,220z"/>
			<path id="XMLID_1219_" class="st102" d="M312.9,201.7c0.1,0.1,0.2,0.2,0.3,0.4c0.2,0.2,0.3,0.3,0.4,0.5c0.1,0.1,0.3,0.3,0.4,0.4
				C313.6,202.5,313.2,202.1,312.9,201.7z"/>
			<path id="XMLID_1218_" class="st102" d="M321.4,209.3c0.1,0.1,0.2,0.2,0.3,0.2c0.5,0.3,0.9,0.6,1.4,0.9
				C322.5,210.1,322,209.7,321.4,209.3z"/>
			<path id="XMLID_1217_" class="st102" d="M303.2,186.2c0,0.1,0,0.1,0.1,0.2c0.1,0.3,0.2,0.5,0.3,0.8c0.1,0.2,0.2,0.4,0.3,0.6
				C303.7,187.2,303.4,186.7,303.2,186.2z"/>
			<path id="XMLID_1216_" class="st102" d="M326.3,212.5c0.6,0.4,1.2,0.7,1.8,1c0.1,0.1,0.2,0.1,0.3,0.2
				C327.8,213.3,327,212.9,326.3,212.5z"/>
			<path id="XMLID_1215_" class="st102" d="M316.9,205.7c0.1,0.1,0.2,0.2,0.3,0.3c0.2,0.2,0.4,0.3,0.6,0.5c0.1,0.1,0.3,0.2,0.4,0.4
				C317.8,206.5,317.3,206.1,316.9,205.7z"/>
			<path id="XMLID_1214_" class="st102" d="M302.3,183.5c0.1,0.2,0.1,0.3,0.2,0.5c0.1,0.2,0.2,0.4,0.2,0.6c0.1,0.2,0.1,0.3,0.2,0.4
				C302.6,184.5,302.4,184,302.3,183.5z"/>
			<path id="XMLID_1213_" class="st102" d="M371.6,221c-0.6,0.1-1.3,0.1-1.9,0.2c0.1,0,0.2,0,0.2,0c0.3,0,0.5,0,0.8-0.1
				C371,221.1,371.3,221,371.6,221C371.6,221,371.6,221,371.6,221z"/>
			<path id="XMLID_1212_" class="st102" d="M366.4,221.4c0.2,0,0.4,0,0.6,0c0.2,0,0.4,0,0.6,0c0.3,0,0.5,0,0.8-0.1
				C367.8,221.3,367.1,221.4,366.4,221.4z"/>
			<path id="XMLID_1211_" class="st102" d="M329.4,214.1c0.4,0.2,0.7,0.4,1.1,0.5c0.2,0.1,0.4,0.2,0.7,0.3c0,0,0.1,0,0.1,0
				C330.6,214.8,330,214.5,329.4,214.1z"/>
			<path id="XMLID_1210_" class="st102" d="M300.2,175.1c0.1,0.3,0.1,0.6,0.2,1c0.1,0.3,0.1,0.5,0.2,0.8c0,0,0,0,0,0.1
				C300.4,176.3,300.3,175.7,300.2,175.1z"/>
			<path id="XMLID_1209_" class="st102" d="M336.7,217.3c-0.6-0.2-1.2-0.4-1.8-0.7C335.5,216.8,336.1,217.1,336.7,217.3z"/>
			<path id="XMLID_1208_" class="st102" d="M332.1,215.5c0.3,0.1,0.5,0.2,0.8,0.4c0.2,0.1,0.4,0.2,0.5,0.2c0.1,0.1,0.3,0.1,0.4,0.2
				C333.3,216,332.7,215.7,332.1,215.5z"/>
			<path id="XMLID_1207_" class="st102" d="M300.7,178c0,0.2,0.1,0.4,0.1,0.6c0.1,0.2,0.1,0.5,0.2,0.7c0,0.1,0.1,0.3,0.1,0.4
				C301,179.1,300.8,178.5,300.7,178z"/>
			<path id="XMLID_1206_" class="st102" d="M301.4,180.8c0.1,0.2,0.1,0.4,0.2,0.6c0,0.1,0.1,0.2,0.1,0.3c0.1,0.2,0.2,0.5,0.2,0.7
				C301.7,181.8,301.6,181.3,301.4,180.8z"/>
			<path id="XMLID_1204_" class="st101" d="M308.9,196.6c0.1,0.1,0.2,0.3,0.3,0.4c0.3,0.5,0.7,0.9,1,1.4c0.1,0.1,0.1,0.2,0.2,0.3
				c0.2,0.2,0.4,0.5,0.6,0.7c0.4,0.5,0.7,0.9,1.1,1.4c0.3,0.3,0.5,0.6,0.8,0.9c0.4,0.4,0.8,0.8,1.1,1.2c0.3,0.3,0.5,0.6,0.8,0.8
				c0.4,0.4,0.8,0.8,1.2,1.2c0.3,0.3,0.6,0.5,0.8,0.8c0.4,0.4,0.9,0.8,1.3,1.1c0.3,0.2,0.6,0.5,0.8,0.7c0.5,0.4,1,0.8,1.5,1.1
				c0.2,0.2,0.4,0.3,0.6,0.5c0.1,0.1,0.2,0.1,0.3,0.2c0.6,0.4,1.1,0.8,1.7,1.2c0.1,0.1,0.2,0.2,0.4,0.2c0.1,0,0.1,0.1,0.2,0.1
				c0.8,0.5,1.6,1,2.4,1.5c0.1,0,0.2,0.1,0.2,0.1c0,0,0,0,0,0c0.7,0.4,1.4,0.8,2.2,1.2c0.1,0,0.2,0.1,0.3,0.1
				c0.2,0.1,0.4,0.2,0.6,0.3c0.6,0.3,1.2,0.6,1.9,0.9c0.3,0.1,0.6,0.3,0.9,0.4c0.6,0.3,1.2,0.5,1.8,0.8c0.3,0.1,0.7,0.3,1,0.4
				c0.6,0.2,1.2,0.5,1.8,0.7c0.3,0.1,0.7,0.2,1,0.4c0.6,0.2,1.2,0.4,1.8,0.6c0.3,0.1,0.7,0.2,1,0.3c0.6,0.2,1.3,0.4,2,0.5
				c0.3,0.1,0.6,0.2,0.9,0.2c0.7,0.2,1.5,0.3,2.2,0.5c0.2,0.1,0.5,0.1,0.7,0.2c0,0,0,0,0,0c2,0.4,4,0.7,6.1,1c0.1,0,0.1,0,0.2,0
				c0.1,0,0.2,0,0.3,0c0.9,0.1,1.8,0.2,2.6,0.3c0.3,0,0.6,0,0.9,0.1c0.7,0,1.5,0.1,2.2,0.1c0.4,0,0.7,0,1.1,0c0.7,0,1.4,0,2.1,0
				c0.4,0,0.8,0,1.2,0c0.7,0,1.4,0,2,0c0.4,0,0.8,0,1.2,0c0.7,0,1.4-0.1,2-0.1c0.4,0,0.8-0.1,1.2-0.1c0.6-0.1,1.3-0.1,1.9-0.2
				c9.3-14,14.1-29.5,13.4-44.1c-1.7,0.9-3.5,1.7-5.2,2.4c-29,12.4-59.7,10.3-79.7-4.6c0,0.1,0,0.2,0,0.3c0.1,0.6,0.2,1.2,0.3,1.8
				c0.1,0.4,0.2,0.7,0.2,1.1c0.1,0.6,0.3,1.1,0.4,1.7c0.1,0.4,0.2,0.7,0.3,1.1c0.2,0.5,0.3,1.1,0.5,1.6c0.1,0.4,0.2,0.7,0.4,1.1
				c0.2,0.5,0.4,1.1,0.6,1.6c0.1,0.4,0.3,0.7,0.4,1.1c0.2,0.5,0.4,1.1,0.7,1.6c0.1,0.3,0.2,0.6,0.4,0.8c0.1,0.1,0.1,0.2,0.2,0.3
				c0.2,0.5,0.5,1,0.8,1.6c0.1,0.2,0.2,0.3,0.2,0.5c0.1,0.2,0.2,0.3,0.3,0.5c0.4,0.8,0.9,1.6,1.3,2.4s1,1.5,1.5,2.3
				C308.6,196.3,308.8,196.4,308.9,196.6z"/>
			<path id="XMLID_1202_" class="st102" d="M301.9,147.6c-0.1,0.5-0.3,1-0.4,1.5c-0.1,0.2-0.1,0.4-0.2,0.6c0,0,0,0.1,0,0.1
				C301.5,149.1,301.7,148.4,301.9,147.6z"/>
			<path id="XMLID_1201_" class="st102" d="M301.1,150.8c-0.1,0.3-0.2,0.6-0.2,1c0,0.2-0.1,0.4-0.1,0.6c0,0.1,0,0.3-0.1,0.4
				C300.8,152.1,301,151.4,301.1,150.8z"/>
			<path id="XMLID_1200_" class="st102" d="M299.4,162.6C299.4,162.7,299.4,162.7,299.4,162.6c0,0.3,0,0.6,0,0.8c0,0.4,0,0.8,0,1.2
				C299.4,164,299.4,163.3,299.4,162.6z"/>
			<path id="XMLID_1199_" class="st102" d="M299.7,159.7c0,0.2,0,0.3,0,0.5c0,0.2,0,0.4,0,0.6c0,0.3,0,0.6-0.1,0.9
				C299.6,161,299.6,160.3,299.7,159.7z"/>
			<path id="XMLID_1198_" class="st102" d="M300.5,153.8c0,0.3-0.1,0.5-0.1,0.8c0,0.1,0,0.2-0.1,0.4c0,0.3-0.1,0.5-0.1,0.8
				C300.3,155.1,300.4,154.4,300.5,153.8z"/>
			<path id="XMLID_1197_" class="st102" d="M299.7,171.9c0.1,0.6,0.1,1.1,0.2,1.7c0,0.1,0,0.3,0.1,0.4
				C299.9,173.3,299.8,172.6,299.7,171.9z"/>
			<path id="XMLID_1195_" class="st102" d="M299.4,165.6c0,0.1,0,0.3,0,0.4c0,0.7,0,1.4,0.1,2.1
				C299.4,167.3,299.4,166.5,299.4,165.6z"/>
			<path id="XMLID_1194_" class="st102" d="M299.8,158.6c0.1-0.6,0.1-1.3,0.2-1.9C299.9,157.4,299.8,158,299.8,158.6z"/>
			<path id="XMLID_1192_" class="st102" d="M308.5,131.3c0.3-0.6,0.6-1.2,1-1.8C309.2,130.1,308.9,130.7,308.5,131.3z"/>
			<path id="XMLID_1191_" class="st102" d="M311.2,126.7c-0.1,0.2-0.3,0.5-0.4,0.7c-0.1,0.2-0.2,0.4-0.3,0.5
				c-0.1,0.2-0.2,0.4-0.3,0.5C310.5,127.9,310.8,127.3,311.2,126.7z"/>
			<path id="XMLID_1190_" class="st102" d="M312.9,124.1C312.9,124.1,312.9,124.1,312.9,124.1c-0.2,0.3-0.3,0.5-0.5,0.8
				c-0.1,0.2-0.3,0.4-0.4,0.7c0,0.1-0.1,0.1-0.1,0.2C312.2,125.1,312.5,124.6,312.9,124.1z"/>
			<path id="XMLID_1189_" class="st102" d="M304.1,141c0,0.1-0.1,0.1-0.1,0.2c-0.7,1.7-1.2,3.5-1.8,5.3c0,0.1-0.1,0.2-0.1,0.4
				C302.7,144.9,303.4,143,304.1,141z"/>
			<path id="XMLID_1188_" class="st102" d="M299.4,168.4c0,0,0,0.1,0,0.1c0,0.9,0.1,1.7,0.2,2.5c0,0.1,0,0.1,0,0.2
				C299.6,170.3,299.5,169.4,299.4,168.4z"/>
			<path id="XMLID_1186_" class="st102" d="M305.3,138.1C305.3,138.1,305.3,138.1,305.3,138.1c-0.1,0.2-0.2,0.4-0.3,0.6
				c-0.3,0.6-0.5,1.2-0.7,1.9C304.6,139.7,304.9,138.9,305.3,138.1z"/>
			<path id="XMLID_1185_" class="st102" d="M306.6,135.2c0,0.1-0.1,0.2-0.1,0.3c-0.1,0.2-0.2,0.4-0.3,0.6c-0.2,0.4-0.3,0.8-0.5,1.2
				C306,136.6,306.3,135.9,306.6,135.2z"/>
			<path id="XMLID_1184_" class="st102" d="M308,132.4c-0.1,0.2-0.2,0.4-0.3,0.6c0,0.1-0.1,0.2-0.1,0.2c-0.2,0.3-0.3,0.7-0.5,1
				C307.4,133.6,307.7,133,308,132.4z"/>
			<path id="XMLID_1183_" class="st102" d="M312.9,124.1c-0.4,0.5-0.7,1.1-1.1,1.6c-0.2,0.3-0.4,0.7-0.7,1.1
				c-0.4,0.6-0.7,1.2-1.1,1.7c-0.2,0.4-0.4,0.7-0.6,1.1c-0.3,0.6-0.7,1.2-1,1.8c-0.2,0.4-0.4,0.7-0.6,1.1c-0.3,0.6-0.6,1.2-0.9,1.9
				c-0.2,0.3-0.3,0.7-0.5,1c-0.3,0.7-0.6,1.3-0.9,2c-0.1,0.3-0.3,0.6-0.4,0.9c-0.3,0.8-0.7,1.6-1,2.5c0,0.1-0.1,0.2-0.1,0.3
				c0,0.1,0,0.1-0.1,0.2c-0.7,1.9-1.4,3.9-2,5.9c0,0,0,0,0,0c-0.1,0.2-0.1,0.5-0.2,0.7c-0.2,0.7-0.4,1.5-0.6,2.2
				c-0.1,0.3-0.1,0.6-0.2,1c-0.2,0.7-0.3,1.3-0.4,2c-0.1,0.3-0.1,0.7-0.2,1c-0.1,0.6-0.2,1.3-0.3,1.9c-0.1,0.4-0.1,0.7-0.2,1.1
				c-0.1,0.6-0.2,1.3-0.2,1.9c0,0.4-0.1,0.7-0.1,1.1c-0.1,0.6-0.1,1.3-0.1,1.9c0,0.3,0,0.7-0.1,1c0,0.7,0,1.4-0.1,2.1
				c0,0.2,0,0.4,0,0.7c0,0.1,0,0.2,0,0.3c0,0.8,0,1.7,0.1,2.5c0,0,0,0,0,0c0,0.1,0,0.2,0,0.3c0,0.9,0.1,1.9,0.2,2.8
				c0,0.1,0,0.1,0,0.2c0,0.1,0,0.3,0.1,0.4c0.1,0.7,0.2,1.4,0.3,2.1c0,0.1,0,0.2,0.1,0.3c0,0.2,0.1,0.3,0.1,0.5
				c20,14.9,50.7,16.9,79.7,4.6c1.8-0.7,3.5-1.6,5.2-2.4c-0.4-9.1-2.9-17.8-7.6-25.7C365,130.7,340,121.2,312.9,124.1z"/>
			<path id="XMLID_1182_" class="st99" d="M269.8,198.9c0,0-29.5-6.3-51.6-42.8"/>
			<path id="XMLID_1181_" class="st100" d="M285.1,226.6c0,0-8.1,29.1,14,65.6"/>
			<path id="XMLID_1180_" class="st43" d="M344.2,215.8l129.3,50c4.7,1.8,10.1-0.5,12-5.2c3.5-8.8,4.9-22.6-15.8-30.3
				c-6.5-2.4-10.6-8.7-10.7-15.6c0-5-2.1-10.6-9.5-14.7c-5.9-3.2-12.8-4-19.4-2.6L344.2,215.8z"/>
			<path id="XMLID_1179_" class="st104" d="M344.2,215.8l93.2-37.6c6.5-2.6,13.9-0.1,17.5,5.8v0c5.4,8.9-0.3,20.4-10.7,21.5
				L344.2,215.8z"/>
			<path id="XMLID_1165_" class="st43" d="M303.9,149.3l15.6-137.7c0.6-5,5.1-8.7,10.1-8.2c9.4,0.9,22.3,6.1,19.5,28
				c-0.9,6.9,2.8,13.4,8.9,16.7c4.5,2.4,8.4,6.8,8.6,15.2c0.1,6.7-2.4,13.2-6.7,18.4L303.9,149.3z"/>
			<path id="XMLID_1162_" class="st104" d="M303.9,149.3l76.5-65.2c5.3-4.5,6.5-12.2,2.9-18.2v0c-5.4-8.9-18.3-9.2-24-0.5
				L303.9,149.3z"/>
			<path id="XMLID_1160_" class="st98" d="M308.6,137.5c13.7-8.3,33.5-1.2,47.4,15.8c1.9,2.4,3.8,4.9,5.4,7.7
				c13.6,22.4,11.9,48.2-3.7,57.7c-15.6,9.4-46.9,3.6-60.5-18.8c-1.7-2.8-3-5.6-4-8.6C286,170.2,294.9,145.8,308.6,137.5z"/>
			<path id="XMLID_1159_" class="st105" d="M308.6,137.5c13.7-8.3,33.5-1.2,47.4,15.8c8.6,20.1,5.7,41-8,49.3
				c-13.7,8.3-39.5,4.8-54.8-11.3C286,170.2,294.9,145.8,308.6,137.5z"/>
			<path id="XMLID_1117_" class="st100" d="M355.4,212.4l-0.6,21.1c-0.2,5.8-2.5,11.3-6.6,15.4l-7.7,7.8c-3.4,3.5-4.8,8.5-3.7,13.2
				l3.4,14.5"/>
			<path id="XMLID_1077_" class="st99" d="M314.5,144.9l-18.9-9.3c-5.2-2.5-11.2-3-16.7-1.3l-10.5,3.2c-4.7,1.4-9.8,0.4-13.5-2.8
				l-11.2-9.7"/>
		</g>
	</g>
</g>
</svg>
